<svg width="899" height="563" viewBox="0 0 899 563" fill="none" xmlns="http://www.w3.org/2000/svg">
<rect width="899" height="563" fill="#E5E5E5"/>
<g clip-path="url(#clip0)">
<rect width="899" height="563" fill="white"/>
<path opacity="0.1" d="M657 297.044C412.022 190.827 270.86 138.385 -40 155.044L-28 618.044L134 637.044L934 658.043L919 148.044C931.723 140.456 928.272 139.528 890 148.044C832.464 176.831 770.927 218.702 657 297.044Z" fill="#C4C4C4"/>
<path opacity="0.1" d="M657 353.044C412.022 246.827 270.86 194.385 -40 211.044L-28 674.044L134 693.044L934 714.043L919 204.044C931.723 196.456 928.272 195.528 890 204.044C832.464 232.831 770.927 274.702 657 353.044Z" fill="#C4C4C4"/>
<path opacity="0.1" d="M664 419.044C419.022 312.827 277.86 260.385 -33 277.044L-21 740.044L141 759.044L941 780.043L926 270.044C938.723 262.456 935.272 261.528 897 270.044C839.464 298.831 777.927 340.702 664 419.044Z" fill="#C4C4C4"/>
<ellipse cx="654.5" cy="297.5" rx="125.5" ry="122.5" fill="url(#paint0_linear)"/>
<rect x="389" y="103" width="497" height="336"/>
<ellipse cx="98" cy="37" rx="19" ry="18" fill="#F65F82"/>
<mask id="mask0" mask-type="alpha" maskUnits="userSpaceOnUse" x="79" y="19" width="38" height="36">
<ellipse cx="98" cy="37" rx="19" ry="18" fill="#F65F82"/>
</mask>
<g mask="url(#mask0)">
<path d="M125.941 38.1247C137.563 23.0647 85.0381 26.9876 66.7061 63.9997L112.53 98.8748L156.118 51.6248L125.941 38.1247Z" fill="#FBED94"/>
</g>
<path d="M454.824 40.52H449.96L449.064 43H447.528L451.56 31.912H453.24L457.256 43H455.72L454.824 40.52ZM454.408 39.336L452.392 33.704L450.376 39.336H454.408ZM460.469 35.848C460.757 35.3467 461.184 34.9307 461.749 34.6C462.325 34.2587 462.992 34.088 463.749 34.088C464.528 34.088 465.232 34.2747 465.861 34.648C466.501 35.0213 467.003 35.5493 467.365 36.232C467.728 36.904 467.909 37.688 467.909 38.584C467.909 39.4693 467.728 40.2587 467.365 40.952C467.003 41.6453 466.501 42.184 465.861 42.568C465.232 42.952 464.528 43.144 463.749 43.144C463.003 43.144 462.341 42.9787 461.765 42.648C461.2 42.3067 460.768 41.8853 460.469 41.384V47.16H459.013V34.232H460.469V35.848ZM466.421 38.584C466.421 37.9227 466.288 37.3467 466.021 36.856C465.755 36.3653 465.392 35.992 464.933 35.736C464.485 35.48 463.989 35.352 463.445 35.352C462.912 35.352 462.416 35.4853 461.957 35.752C461.509 36.008 461.147 36.3867 460.869 36.888C460.603 37.3787 460.469 37.9493 460.469 38.6C460.469 39.2613 460.603 39.8427 460.869 40.344C461.147 40.8347 461.509 41.2133 461.957 41.48C462.416 41.736 462.912 41.864 463.445 41.864C463.989 41.864 464.485 41.736 464.933 41.48C465.392 41.2133 465.755 40.8347 466.021 40.344C466.288 39.8427 466.421 39.256 466.421 38.584ZM471.282 35.848C471.57 35.3467 471.996 34.9307 472.562 34.6C473.138 34.2587 473.804 34.088 474.562 34.088C475.34 34.088 476.044 34.2747 476.674 34.648C477.314 35.0213 477.815 35.5493 478.178 36.232C478.54 36.904 478.722 37.688 478.722 38.584C478.722 39.4693 478.54 40.2587 478.178 40.952C477.815 41.6453 477.314 42.184 476.674 42.568C476.044 42.952 475.34 43.144 474.562 43.144C473.815 43.144 473.154 42.9787 472.578 42.648C472.012 42.3067 471.58 41.8853 471.282 41.384V47.16H469.826V34.232H471.282V35.848ZM477.234 38.584C477.234 37.9227 477.1 37.3467 476.834 36.856C476.567 36.3653 476.204 35.992 475.746 35.736C475.298 35.48 474.802 35.352 474.258 35.352C473.724 35.352 473.228 35.4853 472.77 35.752C472.322 36.008 471.959 36.3867 471.682 36.888C471.415 37.3787 471.282 37.9493 471.282 38.6C471.282 39.2613 471.415 39.8427 471.682 40.344C471.959 40.8347 472.322 41.2133 472.77 41.48C473.228 41.736 473.724 41.864 474.258 41.864C474.802 41.864 475.298 41.736 475.746 41.48C476.204 41.2133 476.567 40.8347 476.834 40.344C477.1 39.8427 477.234 39.256 477.234 38.584Z" fill="#464646"/>
<path d="M138.478 29.454V30.786H133.024V35.016H137.452V36.348H133.024V42H131.386V29.454H138.478ZM144.758 42.162C143.834 42.162 142.994 41.952 142.238 41.532C141.494 41.112 140.906 40.518 140.474 39.75C140.054 38.97 139.844 38.07 139.844 37.05C139.844 36.042 140.06 35.154 140.492 34.386C140.936 33.606 141.536 33.012 142.292 32.604C143.048 32.184 143.894 31.974 144.83 31.974C145.766 31.974 146.612 32.184 147.368 32.604C148.124 33.012 148.718 33.6 149.15 34.368C149.594 35.136 149.816 36.03 149.816 37.05C149.816 38.07 149.588 38.97 149.132 39.75C148.688 40.518 148.082 41.112 147.314 41.532C146.546 41.952 145.694 42.162 144.758 42.162ZM144.758 40.722C145.346 40.722 145.898 40.584 146.414 40.308C146.93 40.032 147.344 39.618 147.656 39.066C147.98 38.514 148.142 37.842 148.142 37.05C148.142 36.258 147.986 35.586 147.674 35.034C147.362 34.482 146.954 34.074 146.45 33.81C145.946 33.534 145.4 33.396 144.812 33.396C144.212 33.396 143.66 33.534 143.156 33.81C142.664 34.074 142.268 34.482 141.968 35.034C141.668 35.586 141.518 36.258 141.518 37.05C141.518 37.854 141.662 38.532 141.95 39.084C142.25 39.636 142.646 40.05 143.138 40.326C143.63 40.59 144.17 40.722 144.758 40.722ZM151.358 37.05C151.358 36.03 151.562 35.142 151.97 34.386C152.378 33.618 152.942 33.024 153.662 32.604C154.394 32.184 155.228 31.974 156.164 31.974C157.376 31.974 158.372 32.268 159.152 32.856C159.944 33.444 160.466 34.26 160.718 35.304H158.954C158.786 34.704 158.456 34.23 157.964 33.882C157.484 33.534 156.884 33.36 156.164 33.36C155.228 33.36 154.472 33.684 153.896 34.332C153.32 34.968 153.032 35.874 153.032 37.05C153.032 38.238 153.32 39.156 153.896 39.804C154.472 40.452 155.228 40.776 156.164 40.776C156.884 40.776 157.484 40.608 157.964 40.272C158.444 39.936 158.774 39.456 158.954 38.832H160.718C160.454 39.84 159.926 40.65 159.134 41.262C158.342 41.862 157.352 42.162 156.164 42.162C155.228 42.162 154.394 41.952 153.662 41.532C152.942 41.112 152.378 40.518 151.97 39.75C151.562 38.982 151.358 38.082 151.358 37.05ZM171.652 32.136V42H170.014V40.542C169.702 41.046 169.264 41.442 168.7 41.73C168.148 42.006 167.536 42.144 166.864 42.144C166.096 42.144 165.406 41.988 164.794 41.676C164.182 41.352 163.696 40.872 163.336 40.236C162.988 39.6 162.814 38.826 162.814 37.914V32.136H164.434V37.698C164.434 38.67 164.68 39.42 165.172 39.948C165.664 40.464 166.336 40.722 167.188 40.722C168.064 40.722 168.754 40.452 169.258 39.912C169.762 39.372 170.014 38.586 170.014 37.554V32.136H171.652ZM177.909 42.162C177.153 42.162 176.475 42.036 175.875 41.784C175.275 41.52 174.801 41.16 174.453 40.704C174.105 40.236 173.913 39.702 173.877 39.102H175.569C175.617 39.594 175.845 39.996 176.253 40.308C176.673 40.62 177.219 40.776 177.891 40.776C178.515 40.776 179.007 40.638 179.367 40.362C179.727 40.086 179.907 39.738 179.907 39.318C179.907 38.886 179.715 38.568 179.331 38.364C178.947 38.148 178.353 37.938 177.549 37.734C176.817 37.542 176.217 37.35 175.749 37.158C175.293 36.954 174.897 36.66 174.561 36.276C174.237 35.88 174.075 35.364 174.075 34.728C174.075 34.224 174.225 33.762 174.525 33.342C174.825 32.922 175.251 32.592 175.803 32.352C176.355 32.1 176.985 31.974 177.693 31.974C178.785 31.974 179.667 32.25 180.339 32.802C181.011 33.354 181.371 34.11 181.419 35.07H179.781C179.745 34.554 179.535 34.14 179.151 33.828C178.779 33.516 178.275 33.36 177.639 33.36C177.051 33.36 176.583 33.486 176.235 33.738C175.887 33.99 175.713 34.32 175.713 34.728C175.713 35.052 175.815 35.322 176.019 35.538C176.235 35.742 176.499 35.91 176.811 36.042C177.135 36.162 177.579 36.3 178.143 36.456C178.851 36.648 179.427 36.84 179.871 37.032C180.315 37.212 180.693 37.488 181.005 37.86C181.329 38.232 181.497 38.718 181.509 39.318C181.509 39.858 181.359 40.344 181.059 40.776C180.759 41.208 180.333 41.55 179.781 41.802C179.241 42.042 178.617 42.162 177.909 42.162ZM192.822 36.69C192.822 37.002 192.804 37.332 192.768 37.68H184.884C184.944 38.652 185.274 39.414 185.874 39.966C186.486 40.506 187.224 40.776 188.088 40.776C188.796 40.776 189.384 40.614 189.852 40.29C190.332 39.954 190.668 39.51 190.86 38.958H192.624C192.36 39.906 191.832 40.68 191.04 41.28C190.248 41.868 189.264 42.162 188.088 42.162C187.152 42.162 186.312 41.952 185.568 41.532C184.836 41.112 184.26 40.518 183.84 39.75C183.42 38.97 183.21 38.07 183.21 37.05C183.21 36.03 183.414 35.136 183.822 34.368C184.23 33.6 184.8 33.012 185.532 32.604C186.276 32.184 187.128 31.974 188.088 31.974C189.024 31.974 189.852 32.178 190.572 32.586C191.292 32.994 191.844 33.558 192.228 34.278C192.624 34.986 192.822 35.79 192.822 36.69ZM191.13 36.348C191.13 35.724 190.992 35.19 190.716 34.746C190.44 34.29 190.062 33.948 189.582 33.72C189.114 33.48 188.592 33.36 188.016 33.36C187.188 33.36 186.48 33.624 185.892 34.152C185.316 34.68 184.986 35.412 184.902 36.348H191.13ZM194.372 37.032C194.372 36.024 194.576 35.142 194.984 34.386C195.392 33.618 195.95 33.024 196.658 32.604C197.378 32.184 198.182 31.974 199.07 31.974C199.838 31.974 200.552 32.154 201.212 32.514C201.872 32.862 202.376 33.324 202.724 33.9V28.68H204.38V42H202.724V40.146C202.4 40.734 201.92 41.22 201.284 41.604C200.648 41.976 199.904 42.162 199.052 42.162C198.176 42.162 197.378 41.946 196.658 41.514C195.95 41.082 195.392 40.476 194.984 39.696C194.576 38.916 194.372 38.028 194.372 37.032ZM202.724 37.05C202.724 36.306 202.574 35.658 202.274 35.106C201.974 34.554 201.566 34.134 201.05 33.846C200.546 33.546 199.988 33.396 199.376 33.396C198.764 33.396 198.206 33.54 197.702 33.828C197.198 34.116 196.796 34.536 196.496 35.088C196.196 35.64 196.046 36.288 196.046 37.032C196.046 37.788 196.196 38.448 196.496 39.012C196.796 39.564 197.198 39.99 197.702 40.29C198.206 40.578 198.764 40.722 199.376 40.722C199.988 40.722 200.546 40.578 201.05 40.29C201.566 39.99 201.974 39.564 202.274 39.012C202.574 38.448 202.724 37.794 202.724 37.05Z" fill="#5E5C5C"/>
<path d="M514.688 37.416C514.688 36.328 514.933 35.352 515.424 34.488C515.915 33.6133 516.581 32.9307 517.424 32.44C518.277 31.9493 519.221 31.704 520.256 31.704C521.472 31.704 522.533 31.9973 523.44 32.584C524.347 33.1707 525.008 34.0027 525.424 35.08H523.68C523.371 34.408 522.923 33.8907 522.336 33.528C521.76 33.1653 521.067 32.984 520.256 32.984C519.477 32.984 518.779 33.1653 518.16 33.528C517.541 33.8907 517.056 34.408 516.704 35.08C516.352 35.7413 516.176 36.52 516.176 37.416C516.176 38.3013 516.352 39.08 516.704 39.752C517.056 40.4133 517.541 40.9253 518.16 41.288C518.779 41.6507 519.477 41.832 520.256 41.832C521.067 41.832 521.76 41.656 522.336 41.304C522.923 40.9413 523.371 40.424 523.68 39.752H525.424C525.008 40.8187 524.347 41.6453 523.44 42.232C522.533 42.808 521.472 43.096 520.256 43.096C519.221 43.096 518.277 42.856 517.424 42.376C516.581 41.8853 515.915 41.208 515.424 40.344C514.933 39.48 514.688 38.504 514.688 37.416ZM531.415 43.144C530.594 43.144 529.847 42.9573 529.175 42.584C528.514 42.2107 527.991 41.6827 527.607 41C527.234 40.3067 527.047 39.5067 527.047 38.6C527.047 37.704 527.239 36.9147 527.623 36.232C528.018 35.5387 528.551 35.0107 529.223 34.648C529.895 34.2747 530.647 34.088 531.479 34.088C532.311 34.088 533.063 34.2747 533.735 34.648C534.407 35.0107 534.935 35.5333 535.319 36.216C535.714 36.8987 535.911 37.6933 535.911 38.6C535.911 39.5067 535.709 40.3067 535.303 41C534.909 41.6827 534.37 42.2107 533.687 42.584C533.005 42.9573 532.247 43.144 531.415 43.144ZM531.415 41.864C531.938 41.864 532.429 41.7413 532.887 41.496C533.346 41.2507 533.714 40.8827 533.991 40.392C534.279 39.9013 534.423 39.304 534.423 38.6C534.423 37.896 534.285 37.2987 534.007 36.808C533.73 36.3173 533.367 35.9547 532.919 35.72C532.471 35.4747 531.986 35.352 531.463 35.352C530.93 35.352 530.439 35.4747 529.991 35.72C529.554 35.9547 529.202 36.3173 528.935 36.808C528.669 37.2987 528.535 37.896 528.535 38.6C528.535 39.3147 528.663 39.9173 528.919 40.408C529.186 40.8987 529.538 41.2667 529.975 41.512C530.413 41.7467 530.893 41.864 531.415 41.864ZM542.098 34.072C543.164 34.072 544.028 34.3973 544.69 35.048C545.351 35.688 545.682 36.616 545.682 37.832V43H544.242V38.04C544.242 37.1653 544.023 36.4987 543.586 36.04C543.148 35.5707 542.551 35.336 541.794 35.336C541.026 35.336 540.412 35.576 539.954 36.056C539.506 36.536 539.282 37.2347 539.282 38.152V43H537.826V34.232H539.282V35.48C539.57 35.032 539.959 34.6853 540.45 34.44C540.951 34.1947 541.5 34.072 542.098 34.072ZM549.836 35.432V40.6C549.836 41.0267 549.927 41.3307 550.108 41.512C550.289 41.6827 550.604 41.768 551.052 41.768H552.124V43H550.812C550.001 43 549.393 42.8133 548.988 42.44C548.583 42.0667 548.38 41.4533 548.38 40.6V35.432H547.244V34.232H548.38V32.024H549.836V34.232H552.124V35.432H549.836ZM553.344 38.584C553.344 37.688 553.526 36.904 553.888 36.232C554.251 35.5493 554.747 35.0213 555.376 34.648C556.016 34.2747 556.726 34.088 557.504 34.088C558.272 34.088 558.939 34.2533 559.504 34.584C560.07 34.9147 560.491 35.3307 560.768 35.832V34.232H562.24V43H560.768V41.368C560.48 41.88 560.048 42.3067 559.472 42.648C558.907 42.9787 558.246 43.144 557.488 43.144C556.71 43.144 556.006 42.952 555.376 42.568C554.747 42.184 554.251 41.6453 553.888 40.952C553.526 40.2587 553.344 39.4693 553.344 38.584ZM560.768 38.6C560.768 37.9387 560.635 37.3627 560.368 36.872C560.102 36.3813 559.739 36.008 559.28 35.752C558.832 35.4853 558.336 35.352 557.792 35.352C557.248 35.352 556.752 35.48 556.304 35.736C555.856 35.992 555.499 36.3653 555.232 36.856C554.966 37.3467 554.832 37.9227 554.832 38.584C554.832 39.256 554.966 39.8427 555.232 40.344C555.499 40.8347 555.856 41.2133 556.304 41.48C556.752 41.736 557.248 41.864 557.792 41.864C558.336 41.864 558.832 41.736 559.28 41.48C559.739 41.2133 560.102 40.8347 560.368 40.344C560.635 39.8427 560.768 39.2613 560.768 38.6ZM564.157 38.6C564.157 37.6933 564.338 36.904 564.701 36.232C565.063 35.5493 565.565 35.0213 566.205 34.648C566.855 34.2747 567.597 34.088 568.429 34.088C569.506 34.088 570.391 34.3493 571.085 34.872C571.789 35.3947 572.253 36.12 572.477 37.048H570.909C570.759 36.5147 570.466 36.0933 570.029 35.784C569.602 35.4747 569.069 35.32 568.429 35.32C567.597 35.32 566.925 35.608 566.413 36.184C565.901 36.7493 565.645 37.5547 565.645 38.6C565.645 39.656 565.901 40.472 566.413 41.048C566.925 41.624 567.597 41.912 568.429 41.912C569.069 41.912 569.602 41.7627 570.029 41.464C570.455 41.1653 570.749 40.7387 570.909 40.184H572.477C572.242 41.08 571.773 41.8 571.069 42.344C570.365 42.8773 569.485 43.144 568.429 43.144C567.597 43.144 566.855 42.9573 566.205 42.584C565.565 42.2107 565.063 41.6827 564.701 41C564.338 40.3173 564.157 39.5173 564.157 38.6ZM576.196 35.432V40.6C576.196 41.0267 576.286 41.3307 576.468 41.512C576.649 41.6827 576.964 41.768 577.411 41.768H578.484V43H577.172C576.361 43 575.753 42.8133 575.348 42.44C574.942 42.0667 574.74 41.4533 574.74 40.6V35.432H573.604V34.232H574.74V32.024H576.196V34.232H578.484V35.432H576.196Z" fill="#464646"/>
<rect x="79" y="390" width="171" height="47" rx="5" fill="#F65F82"/>
<path d="M84.67 301.24H91.72V304H81.25V283.15H84.67V301.24ZM109.73 295.33C109.73 295.95 109.69 296.51 109.61 297.01H96.9801C97.0801 298.33 97.5701 299.39 98.4501 300.19C99.3301 300.99 100.41 301.39 101.69 301.39C103.53 301.39 104.83 300.62 105.59 299.08H109.28C108.78 300.6 107.87 301.85 106.55 302.83C105.25 303.79 103.63 304.27 101.69 304.27C100.11 304.27 98.6901 303.92 97.4301 303.22C96.1901 302.5 95.2101 301.5 94.4901 300.22C93.7901 298.92 93.4401 297.42 93.4401 295.72C93.4401 294.02 93.7801 292.53 94.4601 291.25C95.1601 289.95 96.1301 288.95 97.3701 288.25C98.6301 287.55 100.07 287.2 101.69 287.2C103.25 287.2 104.64 287.54 105.86 288.22C107.08 288.9 108.03 289.86 108.71 291.1C109.39 292.32 109.73 293.73 109.73 295.33ZM106.16 294.25C106.14 292.99 105.69 291.98 104.81 291.22C103.93 290.46 102.84 290.08 101.54 290.08C100.36 290.08 99.3501 290.46 98.5101 291.22C97.6701 291.96 97.1701 292.97 97.0101 294.25H106.16ZM111.956 295.66C111.956 294 112.296 292.53 112.976 291.25C113.676 289.97 114.616 288.98 115.796 288.28C116.996 287.56 118.316 287.2 119.756 287.2C121.056 287.2 122.186 287.46 123.146 287.98C124.126 288.48 124.906 289.11 125.486 289.87V287.47H128.936V304H125.486V301.54C124.906 302.32 124.116 302.97 123.116 303.49C122.116 304.01 120.976 304.27 119.696 304.27C118.276 304.27 116.976 303.91 115.796 303.19C114.616 302.45 113.676 301.43 112.976 300.13C112.296 298.81 111.956 297.32 111.956 295.66ZM125.486 295.72C125.486 294.58 125.246 293.59 124.766 292.75C124.306 291.91 123.696 291.27 122.936 290.83C122.176 290.39 121.356 290.17 120.476 290.17C119.596 290.17 118.776 290.39 118.016 290.83C117.256 291.25 116.636 291.88 116.156 292.72C115.696 293.54 115.466 294.52 115.466 295.66C115.466 296.8 115.696 297.8 116.156 298.66C116.636 299.52 117.256 300.18 118.016 300.64C118.796 301.08 119.616 301.3 120.476 301.3C121.356 301.3 122.176 301.08 122.936 300.64C123.696 300.2 124.306 299.56 124.766 298.72C125.246 297.86 125.486 296.86 125.486 295.72ZM136.848 289.87C137.348 289.03 138.008 288.38 138.828 287.92C139.668 287.44 140.658 287.2 141.798 287.2V290.74H140.928C139.588 290.74 138.568 291.08 137.868 291.76C137.188 292.44 136.848 293.62 136.848 295.3V304H133.428V287.47H136.848V289.87ZM153.281 287.2C154.581 287.2 155.741 287.47 156.761 288.01C157.801 288.55 158.611 289.35 159.191 290.41C159.771 291.47 160.061 292.75 160.061 294.25V304H156.671V294.76C156.671 293.28 156.301 292.15 155.561 291.37C154.821 290.57 153.811 290.17 152.531 290.17C151.251 290.17 150.231 290.57 149.471 291.37C148.731 292.15 148.361 293.28 148.361 294.76V304H144.941V287.47H148.361V289.36C148.921 288.68 149.631 288.15 150.491 287.77C151.371 287.39 152.301 287.2 153.281 287.2ZM187.097 287.47L176.957 311.77H173.417L176.777 303.73L170.267 287.47H174.077L178.727 300.07L183.557 287.47H187.097ZM196.848 304.27C195.288 304.27 193.878 303.92 192.618 303.22C191.358 302.5 190.368 301.5 189.648 300.22C188.928 298.92 188.568 297.42 188.568 295.72C188.568 294.04 188.938 292.55 189.678 291.25C190.418 289.95 191.428 288.95 192.708 288.25C193.988 287.55 195.418 287.2 196.998 287.2C198.578 287.2 200.008 287.55 201.288 288.25C202.568 288.95 203.578 289.95 204.318 291.25C205.058 292.55 205.428 294.04 205.428 295.72C205.428 297.4 205.048 298.89 204.288 300.19C203.528 301.49 202.488 302.5 201.168 303.22C199.868 303.92 198.428 304.27 196.848 304.27ZM196.848 301.3C197.728 301.3 198.548 301.09 199.308 300.67C200.088 300.25 200.718 299.62 201.198 298.78C201.678 297.94 201.918 296.92 201.918 295.72C201.918 294.52 201.688 293.51 201.228 292.69C200.768 291.85 200.158 291.22 199.398 290.8C198.638 290.38 197.818 290.17 196.938 290.17C196.058 290.17 195.238 290.38 194.478 290.8C193.738 291.22 193.148 291.85 192.708 292.69C192.268 293.51 192.048 294.52 192.048 295.72C192.048 297.5 192.498 298.88 193.398 299.86C194.318 300.82 195.468 301.3 196.848 301.3ZM215.469 287.2C216.749 287.2 217.879 287.46 218.859 287.98C219.859 288.48 220.639 289.11 221.199 289.87V287.47H224.649V304.27C224.649 305.79 224.329 307.14 223.689 308.32C223.049 309.52 222.119 310.46 220.899 311.14C219.699 311.82 218.259 312.16 216.579 312.16C214.339 312.16 212.479 311.63 210.999 310.57C209.519 309.53 208.679 308.11 208.479 306.31H211.869C212.129 307.17 212.679 307.86 213.519 308.38C214.379 308.92 215.399 309.19 216.579 309.19C217.959 309.19 219.069 308.77 219.909 307.93C220.769 307.09 221.199 305.87 221.199 304.27V301.51C220.619 302.29 219.829 302.95 218.829 303.49C217.849 304.01 216.729 304.27 215.469 304.27C214.029 304.27 212.709 303.91 211.509 303.19C210.329 302.45 209.389 301.43 208.689 300.13C208.009 298.81 207.669 297.32 207.669 295.66C207.669 294 208.009 292.53 208.689 291.25C209.389 289.97 210.329 288.98 211.509 288.28C212.709 287.56 214.029 287.2 215.469 287.2ZM221.199 295.72C221.199 294.58 220.959 293.59 220.479 292.75C220.019 291.91 219.409 291.27 218.649 290.83C217.889 290.39 217.069 290.17 216.189 290.17C215.309 290.17 214.489 290.39 213.729 290.83C212.969 291.25 212.349 291.88 211.869 292.72C211.409 293.54 211.179 294.52 211.179 295.66C211.179 296.8 211.409 297.8 211.869 298.66C212.349 299.52 212.969 300.18 213.729 300.64C214.509 301.08 215.329 301.3 216.189 301.3C217.069 301.3 217.889 301.08 218.649 300.64C219.409 300.2 220.019 299.56 220.479 298.72C220.959 297.86 221.199 296.86 221.199 295.72ZM228.001 295.66C228.001 294 228.341 292.53 229.021 291.25C229.721 289.97 230.661 288.98 231.841 288.28C233.041 287.56 234.361 287.2 235.801 287.2C237.101 287.2 238.231 287.46 239.191 287.98C240.171 288.48 240.951 289.11 241.531 289.87V287.47H244.981V304H241.531V301.54C240.951 302.32 240.161 302.97 239.161 303.49C238.161 304.01 237.021 304.27 235.741 304.27C234.321 304.27 233.021 303.91 231.841 303.19C230.661 302.45 229.721 301.43 229.021 300.13C228.341 298.81 228.001 297.32 228.001 295.66ZM241.531 295.72C241.531 294.58 241.291 293.59 240.811 292.75C240.351 291.91 239.741 291.27 238.981 290.83C238.221 290.39 237.401 290.17 236.521 290.17C235.641 290.17 234.821 290.39 234.061 290.83C233.301 291.25 232.681 291.88 232.201 292.72C231.741 293.54 231.511 294.52 231.511 295.66C231.511 296.8 231.741 297.8 232.201 298.66C232.681 299.52 233.301 300.18 234.061 300.64C234.841 301.08 235.661 301.3 236.521 301.3C237.401 301.3 238.221 301.08 238.981 300.64C239.741 300.2 240.351 299.56 240.811 298.72C241.291 297.86 241.531 296.86 241.531 295.72ZM279.466 287.47L274.336 304H270.736L267.406 291.79L264.076 304H260.476L255.316 287.47H258.796L262.246 300.76L265.756 287.47H269.326L272.686 300.7L276.106 287.47H279.466ZM283.761 285.28C283.141 285.28 282.621 285.07 282.201 284.65C281.781 284.23 281.571 283.71 281.571 283.09C281.571 282.47 281.781 281.95 282.201 281.53C282.621 281.11 283.141 280.9 283.761 280.9C284.361 280.9 284.871 281.11 285.291 281.53C285.711 281.95 285.921 282.47 285.921 283.09C285.921 283.71 285.711 284.23 285.291 284.65C284.871 285.07 284.361 285.28 283.761 285.28ZM285.441 287.47V304H282.021V287.47H285.441ZM293.922 290.26V299.41C293.922 300.03 294.062 300.48 294.342 300.76C294.642 301.02 295.142 301.15 295.842 301.15H297.942V304H295.242C293.702 304 292.522 303.64 291.702 302.92C290.882 302.2 290.472 301.03 290.472 299.41V290.26H288.522V287.47H290.472V283.36H293.922V287.47H297.942V290.26H293.922ZM309.644 287.2C310.904 287.2 312.024 287.47 313.004 288.01C314.004 288.55 314.784 289.35 315.344 290.41C315.924 291.47 316.214 292.75 316.214 294.25V304H312.824V294.76C312.824 293.28 312.454 292.15 311.714 291.37C310.974 290.57 309.964 290.17 308.684 290.17C307.404 290.17 306.384 290.57 305.624 291.37C304.884 292.15 304.514 293.28 304.514 294.76V304H301.094V281.8H304.514V289.39C305.094 288.69 305.824 288.15 306.704 287.77C307.604 287.39 308.584 287.2 309.644 287.2ZM335.539 304.27C333.979 304.27 332.569 303.92 331.309 303.22C330.049 302.5 329.059 301.5 328.339 300.22C327.619 298.92 327.259 297.42 327.259 295.72C327.259 294.04 327.629 292.55 328.369 291.25C329.109 289.95 330.119 288.95 331.399 288.25C332.679 287.55 334.109 287.2 335.689 287.2C337.269 287.2 338.699 287.55 339.979 288.25C341.259 288.95 342.269 289.95 343.009 291.25C343.749 292.55 344.119 294.04 344.119 295.72C344.119 297.4 343.739 298.89 342.979 300.19C342.219 301.49 341.179 302.5 339.859 303.22C338.559 303.92 337.119 304.27 335.539 304.27ZM335.539 301.3C336.419 301.3 337.239 301.09 337.999 300.67C338.779 300.25 339.409 299.62 339.889 298.78C340.369 297.94 340.609 296.92 340.609 295.72C340.609 294.52 340.379 293.51 339.919 292.69C339.459 291.85 338.849 291.22 338.089 290.8C337.329 290.38 336.509 290.17 335.629 290.17C334.749 290.17 333.929 290.38 333.169 290.8C332.429 291.22 331.839 291.85 331.399 292.69C330.959 293.51 330.739 294.52 330.739 295.72C330.739 297.5 331.189 298.88 332.089 299.86C333.009 300.82 334.159 301.3 335.539 301.3ZM355.84 287.2C357.14 287.2 358.3 287.47 359.32 288.01C360.36 288.55 361.17 289.35 361.75 290.41C362.33 291.47 362.62 292.75 362.62 294.25V304H359.23V294.76C359.23 293.28 358.86 292.15 358.12 291.37C357.38 290.57 356.37 290.17 355.09 290.17C353.81 290.17 352.79 290.57 352.03 291.37C351.29 292.15 350.92 293.28 350.92 294.76V304H347.5V287.47H350.92V289.36C351.48 288.68 352.19 288.15 353.05 287.77C353.93 287.39 354.86 287.2 355.84 287.2ZM382.132 295.33C382.132 295.95 382.092 296.51 382.012 297.01H369.382C369.482 298.33 369.972 299.39 370.852 300.19C371.732 300.99 372.812 301.39 374.092 301.39C375.932 301.39 377.232 300.62 377.992 299.08H381.682C381.182 300.6 380.272 301.85 378.952 302.83C377.652 303.79 376.032 304.27 374.092 304.27C372.512 304.27 371.092 303.92 369.832 303.22C368.592 302.5 367.612 301.5 366.892 300.22C366.192 298.92 365.842 297.42 365.842 295.72C365.842 294.02 366.182 292.53 366.862 291.25C367.562 289.95 368.532 288.95 369.772 288.25C371.032 287.55 372.472 287.2 374.092 287.2C375.652 287.2 377.042 287.54 378.262 288.22C379.482 288.9 380.432 289.86 381.112 291.1C381.792 292.32 382.132 293.73 382.132 295.33ZM378.562 294.25C378.542 292.99 378.092 291.98 377.212 291.22C376.332 290.46 375.242 290.08 373.942 290.08C372.762 290.08 371.752 290.46 370.912 291.22C370.072 291.96 369.572 292.97 369.412 294.25H378.562ZM80.11 340.72C80.11 339.02 80.45 337.53 81.13 336.25C81.83 334.95 82.79 333.95 84.01 333.25C85.23 332.55 86.63 332.2 88.21 332.2C90.21 332.2 91.86 332.68 93.16 333.64C94.48 334.58 95.37 335.93 95.83 337.69H92.14C91.84 336.87 91.36 336.23 90.7 335.77C90.04 335.31 89.21 335.08 88.21 335.08C86.81 335.08 85.69 335.58 84.85 336.58C84.03 337.56 83.62 338.94 83.62 340.72C83.62 342.5 84.03 343.89 84.85 344.89C85.69 345.89 86.81 346.39 88.21 346.39C90.19 346.39 91.5 345.52 92.14 343.78H95.83C95.35 345.46 94.45 346.8 93.13 347.8C91.81 348.78 90.17 349.27 88.21 349.27C86.63 349.27 85.23 348.92 84.01 348.22C82.79 347.5 81.83 346.5 81.13 345.22C80.45 343.92 80.11 342.42 80.11 340.72ZM102.658 326.8V349H99.2383V326.8H102.658ZM108.888 330.28C108.268 330.28 107.748 330.07 107.328 329.65C106.908 329.23 106.698 328.71 106.698 328.09C106.698 327.47 106.908 326.95 107.328 326.53C107.748 326.11 108.268 325.9 108.888 325.9C109.488 325.9 109.998 326.11 110.418 326.53C110.838 326.95 111.048 327.47 111.048 328.09C111.048 328.71 110.838 329.23 110.418 329.65C109.998 330.07 109.488 330.28 108.888 330.28ZM110.568 332.47V349H107.148V332.47H110.568ZM113.919 340.72C113.919 339.02 114.259 337.53 114.939 336.25C115.639 334.95 116.599 333.95 117.819 333.25C119.039 332.55 120.439 332.2 122.019 332.2C124.019 332.2 125.669 332.68 126.969 333.64C128.289 334.58 129.179 335.93 129.639 337.69H125.949C125.649 336.87 125.169 336.23 124.509 335.77C123.849 335.31 123.019 335.08 122.019 335.08C120.619 335.08 119.499 335.58 118.659 336.58C117.839 337.56 117.429 338.94 117.429 340.72C117.429 342.5 117.839 343.89 118.659 344.89C119.499 345.89 120.619 346.39 122.019 346.39C123.999 346.39 125.309 345.52 125.949 343.78H129.639C129.159 345.46 128.259 346.8 126.939 347.8C125.619 348.78 123.979 349.27 122.019 349.27C120.439 349.27 119.039 348.92 117.819 348.22C116.599 347.5 115.639 346.5 114.939 345.22C114.259 343.92 113.919 342.42 113.919 340.72ZM139.587 340.75L147.207 349H142.587L136.467 341.89V349H133.047V326.8H136.467V339.7L142.467 332.47H147.207L139.587 340.75ZM151.038 349.21C150.418 349.21 149.898 349 149.478 348.58C149.058 348.16 148.848 347.64 148.848 347.02C148.848 346.4 149.058 345.88 149.478 345.46C149.898 345.04 150.418 344.83 151.038 344.83C151.638 344.83 152.148 345.04 152.568 345.46C152.988 345.88 153.198 346.4 153.198 347.02C153.198 347.64 152.988 348.16 152.568 348.58C152.148 349 151.638 349.21 151.038 349.21Z" fill="black"/>
<path d="M115.066 411.796C115.053 409.502 116.112 407.771 118.254 406.495C117.055 404.814 115.244 403.889 112.853 403.707C110.59 403.532 108.116 405.001 107.21 405.001C106.254 405.001 104.061 403.77 102.339 403.77C98.7811 403.826 95 406.552 95 412.096C95 413.734 95.3061 415.426 95.9182 417.172C96.7343 419.467 99.6801 425.093 102.753 424.999C104.36 424.961 105.495 423.88 107.587 423.88C109.614 423.88 110.666 424.999 112.458 424.999C115.557 424.955 118.222 419.842 119 417.541C114.843 415.622 115.066 411.915 115.066 411.796ZM111.457 401.532C113.198 399.507 113.038 397.663 112.987 397C111.451 397.088 109.672 398.025 108.658 399.182C107.542 400.419 106.885 401.951 107.026 403.676C108.69 403.801 110.207 402.964 111.457 401.532Z" fill="#FFFCFC"/>
<path d="M110.14 198.88V207.1H92.98V215.98H105.82V223.96H92.98V241H82.72V198.88H110.14ZM135.453 241.42C131.493 241.42 127.853 240.5 124.533 238.66C121.253 236.82 118.633 234.26 116.673 230.98C114.752 227.66 113.792 223.94 113.792 219.82C113.792 215.7 114.752 212 116.673 208.72C118.633 205.44 121.253 202.88 124.533 201.04C127.853 199.2 131.493 198.28 135.453 198.28C139.413 198.28 143.033 199.2 146.313 201.04C149.633 202.88 152.233 205.44 154.113 208.72C156.033 212 156.993 215.7 156.993 219.82C156.993 223.94 156.033 227.66 154.113 230.98C152.193 234.26 149.593 236.82 146.313 238.66C143.033 240.5 139.413 241.42 135.453 241.42ZM135.453 232.06C138.813 232.06 141.493 230.94 143.492 228.7C145.533 226.46 146.553 223.5 146.553 219.82C146.553 216.1 145.533 213.14 143.492 210.94C141.493 208.7 138.813 207.58 135.453 207.58C132.053 207.58 129.333 208.68 127.293 210.88C125.293 213.08 124.293 216.06 124.293 219.82C124.293 223.54 125.293 226.52 127.293 228.76C129.333 230.96 132.053 232.06 135.453 232.06ZM160.96 219.88C160.96 215.72 161.86 212.02 163.66 208.78C165.46 205.5 167.96 202.96 171.16 201.16C174.4 199.32 178.06 198.4 182.14 198.4C187.14 198.4 191.42 199.72 194.98 202.36C198.54 205 200.92 208.6 202.12 213.16H190.84C190 211.4 188.8 210.06 187.24 209.14C185.72 208.22 183.98 207.76 182.02 207.76C178.86 207.76 176.3 208.86 174.34 211.06C172.38 213.26 171.4 216.2 171.4 219.88C171.4 223.56 172.38 226.5 174.34 228.7C176.3 230.9 178.86 232 182.02 232C183.98 232 185.72 231.54 187.24 230.62C188.8 229.7 190 228.36 190.84 226.6H202.12C200.92 231.16 198.54 234.76 194.98 237.4C191.42 240 187.14 241.3 182.14 241.3C178.06 241.3 174.4 240.4 171.16 238.6C167.96 236.76 165.46 234.22 163.66 230.98C161.86 227.74 160.96 224.04 160.96 219.88ZM218.484 198.88V224.08C218.484 226.6 219.104 228.54 220.344 229.9C221.584 231.26 223.404 231.94 225.804 231.94C228.204 231.94 230.044 231.26 231.324 229.9C232.604 228.54 233.244 226.6 233.244 224.08V198.88H243.504V224.02C243.504 227.78 242.704 230.96 241.104 233.56C239.504 236.16 237.344 238.12 234.624 239.44C231.944 240.76 228.944 241.42 225.624 241.42C222.304 241.42 219.324 240.78 216.684 239.5C214.084 238.18 212.024 236.22 210.504 233.62C208.984 230.98 208.224 227.78 208.224 224.02V198.88H218.484ZM265.948 241.42C262.868 241.42 260.108 240.92 257.668 239.92C255.228 238.92 253.268 237.44 251.788 235.48C250.348 233.52 249.588 231.16 249.508 228.4H260.428C260.588 229.96 261.128 231.16 262.048 232C262.968 232.8 264.168 233.2 265.648 233.2C267.168 233.2 268.368 232.86 269.248 232.18C270.128 231.46 270.568 230.48 270.568 229.24C270.568 228.2 270.208 227.34 269.488 226.66C268.808 225.98 267.948 225.42 266.908 224.98C265.908 224.54 264.468 224.04 262.588 223.48C259.868 222.64 257.648 221.8 255.928 220.96C254.208 220.12 252.728 218.88 251.488 217.24C250.248 215.6 249.628 213.46 249.628 210.82C249.628 206.9 251.048 203.84 253.888 201.64C256.728 199.4 260.428 198.28 264.988 198.28C269.628 198.28 273.368 199.4 276.208 201.64C279.048 203.84 280.568 206.92 280.768 210.88H269.668C269.588 209.52 269.088 208.46 268.168 207.7C267.248 206.9 266.068 206.5 264.628 206.5C263.388 206.5 262.388 206.84 261.628 207.52C260.868 208.16 260.488 209.1 260.488 210.34C260.488 211.7 261.128 212.76 262.408 213.52C263.688 214.28 265.688 215.1 268.408 215.98C271.128 216.9 273.328 217.78 275.008 218.62C276.728 219.46 278.208 220.68 279.448 222.28C280.688 223.88 281.308 225.94 281.308 228.46C281.308 230.86 280.688 233.04 279.448 235C278.248 236.96 276.488 238.52 274.168 239.68C271.848 240.84 269.108 241.42 265.948 241.42ZM297.882 207.1V215.62H311.622V223.54H297.882V232.78H313.422V241H287.622V198.88H313.422V207.1H297.882ZM335.863 198.88C340.303 198.88 344.183 199.76 347.503 201.52C350.823 203.28 353.383 205.76 355.183 208.96C357.023 212.12 357.943 215.78 357.943 219.94C357.943 224.06 357.023 227.72 355.183 230.92C353.383 234.12 350.803 236.6 347.443 238.36C344.123 240.12 340.263 241 335.863 241H320.083V198.88H335.863ZM335.203 232.12C339.083 232.12 342.103 231.06 344.263 228.94C346.423 226.82 347.503 223.82 347.503 219.94C347.503 216.06 346.423 213.04 344.263 210.88C342.103 208.72 339.083 207.64 335.203 207.64H330.343V232.12H335.203Z" fill="black"/>
<path d="M140.436 408.49C141.768 408.49 142.932 408.748 143.928 409.264C144.936 409.768 145.71 410.5 146.25 411.46C146.802 412.408 147.078 413.518 147.078 414.79C147.078 416.062 146.802 417.166 146.25 418.102C145.71 419.038 144.936 419.758 143.928 420.262C142.932 420.754 141.768 421 140.436 421H136.35V408.49H140.436ZM140.436 419.326C141.9 419.326 143.022 418.93 143.802 418.138C144.582 417.346 144.972 416.23 144.972 414.79C144.972 413.338 144.582 412.204 143.802 411.388C143.022 410.572 141.9 410.164 140.436 410.164H138.402V419.326H140.436ZM153.414 421.162C152.478 421.162 151.632 420.952 150.876 420.532C150.12 420.1 149.526 419.5 149.094 418.732C148.662 417.952 148.446 417.052 148.446 416.032C148.446 415.024 148.668 414.13 149.112 413.35C149.556 412.57 150.162 411.97 150.93 411.55C151.698 411.13 152.556 410.92 153.504 410.92C154.452 410.92 155.31 411.13 156.078 411.55C156.846 411.97 157.452 412.57 157.896 413.35C158.34 414.13 158.562 415.024 158.562 416.032C158.562 417.04 158.334 417.934 157.878 418.714C157.422 419.494 156.798 420.1 156.006 420.532C155.226 420.952 154.362 421.162 153.414 421.162ZM153.414 419.38C153.942 419.38 154.434 419.254 154.89 419.002C155.358 418.75 155.736 418.372 156.024 417.868C156.312 417.364 156.456 416.752 156.456 416.032C156.456 415.312 156.318 414.706 156.042 414.214C155.766 413.71 155.4 413.332 154.944 413.08C154.488 412.828 153.996 412.702 153.468 412.702C152.94 412.702 152.448 412.828 151.992 413.08C151.548 413.332 151.194 413.71 150.93 414.214C150.666 414.706 150.534 415.312 150.534 416.032C150.534 417.1 150.804 417.928 151.344 418.516C151.896 419.092 152.586 419.38 153.414 419.38ZM173.91 411.082L170.832 421H168.672L166.674 413.674L164.676 421H162.516L159.42 411.082H161.508L163.578 419.056L165.684 411.082H167.826L169.842 419.02L171.894 411.082H173.91ZM180.448 410.92C181.228 410.92 181.924 411.082 182.536 411.406C183.16 411.73 183.646 412.21 183.994 412.846C184.342 413.482 184.516 414.25 184.516 415.15V421H182.482V415.456C182.482 414.568 182.26 413.89 181.816 413.422C181.372 412.942 180.766 412.702 179.998 412.702C179.23 412.702 178.618 412.942 178.162 413.422C177.718 413.89 177.496 414.568 177.496 415.456V421H175.444V411.082H177.496V412.216C177.832 411.808 178.258 411.49 178.774 411.262C179.302 411.034 179.86 410.92 180.448 410.92ZM189.185 407.68V421H187.133V407.68H189.185ZM196.181 421.162C195.245 421.162 194.399 420.952 193.643 420.532C192.887 420.1 192.293 419.5 191.861 418.732C191.429 417.952 191.213 417.052 191.213 416.032C191.213 415.024 191.435 414.13 191.879 413.35C192.323 412.57 192.929 411.97 193.697 411.55C194.465 411.13 195.323 410.92 196.271 410.92C197.219 410.92 198.077 411.13 198.845 411.55C199.613 411.97 200.219 412.57 200.663 413.35C201.107 414.13 201.329 415.024 201.329 416.032C201.329 417.04 201.101 417.934 200.645 418.714C200.189 419.494 199.565 420.1 198.773 420.532C197.993 420.952 197.129 421.162 196.181 421.162ZM196.181 419.38C196.709 419.38 197.201 419.254 197.657 419.002C198.125 418.75 198.503 418.372 198.791 417.868C199.079 417.364 199.223 416.752 199.223 416.032C199.223 415.312 199.085 414.706 198.809 414.214C198.533 413.71 198.167 413.332 197.711 413.08C197.255 412.828 196.763 412.702 196.235 412.702C195.707 412.702 195.215 412.828 194.759 413.08C194.315 413.332 193.961 413.71 193.697 414.214C193.433 414.706 193.301 415.312 193.301 416.032C193.301 417.1 193.571 417.928 194.111 418.516C194.663 419.092 195.353 419.38 196.181 419.38ZM202.674 415.996C202.674 415 202.878 414.118 203.286 413.35C203.706 412.582 204.27 411.988 204.978 411.568C205.698 411.136 206.49 410.92 207.354 410.92C208.134 410.92 208.812 411.076 209.388 411.388C209.976 411.688 210.444 412.066 210.792 412.522V411.082H212.862V421H210.792V419.524C210.444 419.992 209.97 420.382 209.37 420.694C208.77 421.006 208.086 421.162 207.318 421.162C206.466 421.162 205.686 420.946 204.978 420.514C204.27 420.07 203.706 419.458 203.286 418.678C202.878 417.886 202.674 416.992 202.674 415.996ZM210.792 416.032C210.792 415.348 210.648 414.754 210.36 414.25C210.084 413.746 209.718 413.362 209.262 413.098C208.806 412.834 208.314 412.702 207.786 412.702C207.258 412.702 206.766 412.834 206.31 413.098C205.854 413.35 205.482 413.728 205.194 414.232C204.918 414.724 204.78 415.312 204.78 415.996C204.78 416.68 204.918 417.28 205.194 417.796C205.482 418.312 205.854 418.708 206.31 418.984C206.778 419.248 207.27 419.38 207.786 419.38C208.314 419.38 208.806 419.248 209.262 418.984C209.718 418.72 210.084 418.336 210.36 417.832C210.648 417.316 210.792 416.716 210.792 416.032ZM214.873 415.996C214.873 415 215.077 414.118 215.485 413.35C215.905 412.582 216.469 411.988 217.177 411.568C217.897 411.136 218.695 410.92 219.571 410.92C220.219 410.92 220.855 411.064 221.479 411.352C222.115 411.628 222.619 412 222.991 412.468V407.68H225.061V421H222.991V419.506C222.655 419.986 222.187 420.382 221.587 420.694C220.999 421.006 220.321 421.162 219.553 421.162C218.689 421.162 217.897 420.946 217.177 420.514C216.469 420.07 215.905 419.458 215.485 418.678C215.077 417.886 214.873 416.992 214.873 415.996ZM222.991 416.032C222.991 415.348 222.847 414.754 222.559 414.25C222.283 413.746 221.917 413.362 221.461 413.098C221.005 412.834 220.513 412.702 219.985 412.702C219.457 412.702 218.965 412.834 218.509 413.098C218.053 413.35 217.681 413.728 217.393 414.232C217.117 414.724 216.979 415.312 216.979 415.996C216.979 416.68 217.117 417.28 217.393 417.796C217.681 418.312 218.053 418.708 218.509 418.984C218.977 419.248 219.469 419.38 219.985 419.38C220.513 419.38 221.005 419.248 221.461 418.984C221.917 418.72 222.283 418.336 222.559 417.832C222.847 417.316 222.991 416.716 222.991 416.032Z" fill="#FFFCFC"/>
<path d="M613.768 45.112C613.032 45.112 612.371 44.984 611.784 44.728C611.208 44.4613 610.755 44.0987 610.424 43.64C610.093 43.1707 609.923 42.632 609.912 42.024H611.464C611.517 42.5467 611.731 42.9893 612.104 43.352C612.488 43.704 613.043 43.88 613.768 43.88C614.461 43.88 615.005 43.7093 615.4 43.368C615.805 43.016 616.008 42.568 616.008 42.024C616.008 41.5973 615.891 41.2507 615.656 40.984C615.421 40.7173 615.128 40.5147 614.776 40.376C614.424 40.2373 613.949 40.088 613.352 39.928C612.616 39.736 612.024 39.544 611.576 39.352C611.139 39.16 610.76 38.8613 610.44 38.456C610.131 38.04 609.976 37.4853 609.976 36.792C609.976 36.184 610.131 35.6453 610.44 35.176C610.749 34.7067 611.181 34.344 611.736 34.088C612.301 33.832 612.947 33.704 613.672 33.704C614.717 33.704 615.571 33.9653 616.232 34.488C616.904 35.0107 617.283 35.704 617.368 36.568H615.768C615.715 36.1413 615.491 35.768 615.096 35.448C614.701 35.1173 614.179 34.952 613.528 34.952C612.92 34.952 612.424 35.112 612.04 35.432C611.656 35.7413 611.464 36.1787 611.464 36.744C611.464 37.1493 611.576 37.48 611.8 37.736C612.035 37.992 612.317 38.1893 612.648 38.328C612.989 38.456 613.464 38.6053 614.072 38.776C614.808 38.9787 615.4 39.1813 615.848 39.384C616.296 39.576 616.68 39.88 617 40.296C617.32 40.7013 617.48 41.256 617.48 41.96C617.48 42.504 617.336 43.016 617.048 43.496C616.76 43.976 616.333 44.3653 615.768 44.664C615.203 44.9627 614.536 45.112 613.768 45.112ZM627.399 36.232V45H625.943V43.704C625.665 44.152 625.276 44.504 624.775 44.76C624.284 45.0053 623.74 45.128 623.143 45.128C622.46 45.128 621.847 44.9893 621.303 44.712C620.759 44.424 620.327 43.9973 620.007 43.432C619.697 42.8667 619.543 42.1787 619.543 41.368V36.232H620.983V41.176C620.983 42.04 621.201 42.7067 621.639 43.176C622.076 43.6347 622.673 43.864 623.431 43.864C624.209 43.864 624.823 43.624 625.271 43.144C625.719 42.664 625.943 41.9653 625.943 41.048V36.232H627.399ZM631.313 37.848C631.601 37.3467 632.028 36.9307 632.593 36.6C633.169 36.2587 633.836 36.088 634.593 36.088C635.372 36.088 636.076 36.2747 636.705 36.648C637.345 37.0213 637.846 37.5493 638.209 38.232C638.572 38.904 638.753 39.688 638.753 40.584C638.753 41.4693 638.572 42.2587 638.209 42.952C637.846 43.6453 637.345 44.184 636.705 44.568C636.076 44.952 635.372 45.144 634.593 45.144C633.846 45.144 633.185 44.9787 632.609 44.648C632.044 44.3067 631.612 43.8853 631.313 43.384V49.16H629.857V36.232H631.313V37.848ZM637.265 40.584C637.265 39.9227 637.132 39.3467 636.865 38.856C636.598 38.3653 636.236 37.992 635.777 37.736C635.329 37.48 634.833 37.352 634.289 37.352C633.756 37.352 633.26 37.4853 632.801 37.752C632.353 38.008 631.99 38.3867 631.713 38.888C631.446 39.3787 631.313 39.9493 631.313 40.6C631.313 41.2613 631.446 41.8427 631.713 42.344C631.99 42.8347 632.353 43.2133 632.801 43.48C633.26 43.736 633.756 43.864 634.289 43.864C634.833 43.864 635.329 43.736 635.777 43.48C636.236 43.2133 636.598 42.8347 636.865 42.344C637.132 41.8427 637.265 41.256 637.265 40.584ZM642.126 37.848C642.414 37.3467 642.84 36.9307 643.406 36.6C643.982 36.2587 644.648 36.088 645.406 36.088C646.184 36.088 646.888 36.2747 647.517 36.648C648.157 37.0213 648.659 37.5493 649.022 38.232C649.384 38.904 649.566 39.688 649.566 40.584C649.566 41.4693 649.384 42.2587 649.022 42.952C648.659 43.6453 648.157 44.184 647.517 44.568C646.888 44.952 646.184 45.144 645.406 45.144C644.659 45.144 643.998 44.9787 643.422 44.648C642.856 44.3067 642.424 43.8853 642.126 43.384V49.16H640.67V36.232H642.126V37.848ZM648.078 40.584C648.078 39.9227 647.944 39.3467 647.678 38.856C647.411 38.3653 647.048 37.992 646.59 37.736C646.142 37.48 645.646 37.352 645.102 37.352C644.568 37.352 644.072 37.4853 643.614 37.752C643.166 38.008 642.803 38.3867 642.526 38.888C642.259 39.3787 642.126 39.9493 642.126 40.6C642.126 41.2613 642.259 41.8427 642.526 42.344C642.803 42.8347 643.166 43.2133 643.614 43.48C644.072 43.736 644.568 43.864 645.102 43.864C645.646 43.864 646.142 43.736 646.59 43.48C647.048 43.2133 647.411 42.8347 647.678 42.344C647.944 41.8427 648.078 41.256 648.078 40.584ZM655.306 45.144C654.485 45.144 653.738 44.9573 653.066 44.584C652.405 44.2107 651.882 43.6827 651.498 43C651.125 42.3067 650.938 41.5067 650.938 40.6C650.938 39.704 651.13 38.9147 651.514 38.232C651.909 37.5387 652.442 37.0107 653.114 36.648C653.786 36.2747 654.538 36.088 655.37 36.088C656.202 36.088 656.954 36.2747 657.626 36.648C658.298 37.0107 658.826 37.5333 659.21 38.216C659.605 38.8987 659.802 39.6933 659.802 40.6C659.802 41.5067 659.599 42.3067 659.194 43C658.799 43.6827 658.261 44.2107 657.578 44.584C656.895 44.9573 656.138 45.144 655.306 45.144ZM655.306 43.864C655.829 43.864 656.319 43.7413 656.778 43.496C657.237 43.2507 657.605 42.8827 657.882 42.392C658.17 41.9013 658.314 41.304 658.314 40.6C658.314 39.896 658.175 39.2987 657.898 38.808C657.621 38.3173 657.258 37.9547 656.81 37.72C656.362 37.4747 655.877 37.352 655.354 37.352C654.821 37.352 654.33 37.4747 653.882 37.72C653.445 37.9547 653.093 38.3173 652.826 38.808C652.559 39.2987 652.426 39.896 652.426 40.6C652.426 41.3147 652.554 41.9173 652.81 42.408C653.077 42.8987 653.429 43.2667 653.866 43.512C654.303 43.7467 654.783 43.864 655.306 43.864ZM663.172 37.656C663.428 37.1547 663.791 36.7653 664.26 36.488C664.74 36.2107 665.322 36.072 666.004 36.072V37.576H665.62C663.988 37.576 663.172 38.4613 663.172 40.232V45H661.716V36.232H663.172V37.656ZM669.461 37.432V42.6C669.461 43.0267 669.552 43.3307 669.733 43.512C669.914 43.6827 670.229 43.768 670.677 43.768H671.749V45H670.437C669.626 45 669.018 44.8133 668.613 44.44C668.208 44.0667 668.005 43.4533 668.005 42.6V37.432H666.869V36.232H668.005V34.024H669.461V36.232H671.749V37.432H669.461Z" fill="#555454"/>
<rect x="699.5" y="26.5" width="74" height="27" rx="3.5" stroke="#FBF194" stroke-width="3"/>
<path d="M717.688 43.816H721.592V45H716.232V33.848H717.688V43.816ZM726.962 45.144C726.141 45.144 725.394 44.9573 724.722 44.584C724.061 44.2107 723.538 43.6827 723.154 43C722.781 42.3067 722.594 41.5067 722.594 40.6C722.594 39.704 722.786 38.9147 723.17 38.232C723.565 37.5387 724.098 37.0107 724.77 36.648C725.442 36.2747 726.194 36.088 727.026 36.088C727.858 36.088 728.61 36.2747 729.282 36.648C729.954 37.0107 730.482 37.5333 730.866 38.216C731.261 38.8987 731.458 39.6933 731.458 40.6C731.458 41.5067 731.256 42.3067 730.85 43C730.456 43.6827 729.917 44.2107 729.234 44.584C728.552 44.9573 727.794 45.144 726.962 45.144ZM726.962 43.864C727.485 43.864 727.976 43.7413 728.434 43.496C728.893 43.2507 729.261 42.8827 729.538 42.392C729.826 41.9013 729.97 41.304 729.97 40.6C729.97 39.896 729.832 39.2987 729.554 38.808C729.277 38.3173 728.914 37.9547 728.466 37.72C728.018 37.4747 727.533 37.352 727.01 37.352C726.477 37.352 725.986 37.4747 725.538 37.72C725.101 37.9547 724.749 38.3173 724.482 38.808C724.216 39.2987 724.082 39.896 724.082 40.6C724.082 41.3147 724.21 41.9173 724.466 42.408C724.733 42.8987 725.085 43.2667 725.522 43.512C725.96 43.7467 726.44 43.864 726.962 43.864ZM736.989 36.088C737.746 36.088 738.407 36.2533 738.973 36.584C739.549 36.9147 739.975 37.3307 740.253 37.832V36.232H741.725V45.192C741.725 45.992 741.554 46.7013 741.213 47.32C740.871 47.9493 740.381 48.44 739.741 48.792C739.111 49.144 738.375 49.32 737.533 49.32C736.381 49.32 735.421 49.048 734.653 48.504C733.885 47.96 733.431 47.2187 733.293 46.28H734.733C734.893 46.8133 735.223 47.24 735.725 47.56C736.226 47.8907 736.829 48.056 737.533 48.056C738.333 48.056 738.983 47.8053 739.485 47.304C739.997 46.8027 740.253 46.0987 740.253 45.192V43.352C739.965 43.864 739.538 44.2907 738.973 44.632C738.407 44.9733 737.746 45.144 736.989 45.144C736.21 45.144 735.501 44.952 734.861 44.568C734.231 44.184 733.735 43.6453 733.373 42.952C733.01 42.2587 732.829 41.4693 732.829 40.584C732.829 39.688 733.01 38.904 733.373 38.232C733.735 37.5493 734.231 37.0213 734.861 36.648C735.501 36.2747 736.21 36.088 736.989 36.088ZM740.253 40.6C740.253 39.9387 740.119 39.3627 739.853 38.872C739.586 38.3813 739.223 38.008 738.765 37.752C738.317 37.4853 737.821 37.352 737.277 37.352C736.733 37.352 736.237 37.48 735.789 37.736C735.341 37.992 734.983 38.3653 734.717 38.856C734.45 39.3467 734.317 39.9227 734.317 40.584C734.317 41.256 734.45 41.8427 734.717 42.344C734.983 42.8347 735.341 43.2133 735.789 43.48C736.237 43.736 736.733 43.864 737.277 43.864C737.821 43.864 738.317 43.736 738.765 43.48C739.223 43.2133 739.586 42.8347 739.853 42.344C740.119 41.8427 740.253 41.2613 740.253 40.6ZM744.937 34.808C744.66 34.808 744.425 34.712 744.233 34.52C744.041 34.328 743.945 34.0933 743.945 33.816C743.945 33.5387 744.041 33.304 744.233 33.112C744.425 32.92 744.66 32.824 744.937 32.824C745.204 32.824 745.428 32.92 745.609 33.112C745.801 33.304 745.897 33.5387 745.897 33.816C745.897 34.0933 745.801 34.328 745.609 34.52C745.428 34.712 745.204 34.808 744.937 34.808ZM745.641 36.232V45H744.185V36.232H745.641ZM752.395 36.072C753.461 36.072 754.325 36.3973 754.987 37.048C755.648 37.688 755.979 38.616 755.979 39.832V45H754.539V40.04C754.539 39.1653 754.32 38.4987 753.883 38.04C753.445 37.5707 752.848 37.336 752.091 37.336C751.323 37.336 750.709 37.576 750.251 38.056C749.803 38.536 749.579 39.2347 749.579 40.152V45H748.123V36.232H749.579V37.48C749.867 37.032 750.256 36.6853 750.747 36.44C751.248 36.1947 751.797 36.072 752.395 36.072Z" fill="#555454"/>
</g>
<defs>
<linearGradient id="paint0_linear" x1="654.5" y1="175" x2="654.5" y2="420" gradientUnits="userSpaceOnUse">
<stop stop-color="#EEDD48"/>
<stop offset="0.0001" stop-color="#FBF194"/>
<stop offset="1" stop-color="#F54D7F"/>
</linearGradient>
<clipPath id="clip0">
<rect width="899" height="563" fill="white"/>
</clipPath>
</defs>
</svg>
