<svg width="931" height="608" viewBox="0 0 931 608" fill="none" xmlns="http://www.w3.org/2000/svg">
<rect width="931" height="608" fill="#E5E5E5"/>
<g clip-path="url(#clip0)">
<rect width="931" height="608" fill="white"/>
<path d="M570.746 540.278C572.016 632.111 496.385 707.616 401.821 708.924C307.257 710.231 229.568 636.845 228.299 545.012C227.029 453.179 302.659 377.674 397.224 376.367C491.788 375.06 569.476 448.445 570.746 540.278Z" fill="url(#paint0_linear)" fill-opacity="0.35"/>
<path d="M570.746 540.278C572.016 632.111 496.385 707.616 401.821 708.924C307.257 710.231 229.568 636.845 228.299 545.012C227.029 453.179 302.659 377.674 397.224 376.367C491.788 375.06 569.476 448.445 570.746 540.278Z" fill="url(#paint1_linear)" fill-opacity="0.35"/>
<ellipse cx="959.377" cy="607.751" rx="175.089" ry="206.099" transform="rotate(-12.792 959.377 607.751)" fill="url(#paint2_linear)" fill-opacity="0.25"/>
<ellipse cx="959.377" cy="607.751" rx="175.089" ry="206.099" transform="rotate(-12.792 959.377 607.751)" fill="url(#paint3_linear)" fill-opacity="0.25"/>
<ellipse cx="603.5" cy="349.5" rx="213.5" ry="209.5" fill="url(#paint4_linear)" fill-opacity="0.5"/>
<ellipse cx="603.5" cy="349.5" rx="213.5" ry="209.5" fill="url(#paint5_linear)" fill-opacity="0.5"/>
<ellipse cx="794" cy="163" rx="244" ry="232" fill="url(#paint6_linear)"/>
<path d="M77.832 231.055H90.7422V235H72.8906V206.562H77.832V231.055ZM106.699 235C106.491 234.596 106.309 233.939 106.152 233.027C104.642 234.603 102.793 235.391 100.605 235.391C98.4831 235.391 96.7513 234.785 95.4102 233.574C94.069 232.363 93.3984 230.866 93.3984 229.082C93.3984 226.829 94.2318 225.104 95.8984 223.906C97.5781 222.695 99.974 222.09 103.086 222.09H105.996V220.703C105.996 219.609 105.69 218.737 105.078 218.086C104.466 217.422 103.535 217.09 102.285 217.09C101.204 217.09 100.319 217.363 99.6289 217.91C98.9388 218.444 98.5938 219.128 98.5938 219.961H93.8477C93.8477 218.802 94.2318 217.721 95 216.719C95.7682 215.703 96.8099 214.909 98.125 214.336C99.4531 213.763 100.931 213.477 102.559 213.477C105.033 213.477 107.005 214.102 108.477 215.352C109.948 216.589 110.703 218.333 110.742 220.586V230.117C110.742 232.018 111.009 233.535 111.543 234.668V235H106.699ZM101.484 231.582C102.422 231.582 103.301 231.354 104.121 230.898C104.954 230.443 105.579 229.831 105.996 229.062V225.078H103.438C101.68 225.078 100.358 225.384 99.4727 225.996C98.5872 226.608 98.1445 227.474 98.1445 228.594C98.1445 229.505 98.444 230.234 99.043 230.781C99.6549 231.315 100.469 231.582 101.484 231.582ZM134.219 224.648C134.219 227.917 133.477 230.527 131.992 232.48C130.508 234.421 128.516 235.391 126.016 235.391C123.698 235.391 121.842 234.629 120.449 233.105V243.125H115.703V213.867H120.078L120.273 216.016C121.667 214.323 123.561 213.477 125.957 213.477C128.535 213.477 130.553 214.44 132.012 216.367C133.483 218.281 134.219 220.944 134.219 224.355V224.648ZM129.492 224.238C129.492 222.129 129.069 220.456 128.223 219.219C127.389 217.982 126.191 217.363 124.629 217.363C122.689 217.363 121.296 218.164 120.449 219.766V229.141C121.309 230.781 122.715 231.602 124.668 231.602C126.178 231.602 127.357 230.996 128.203 229.785C129.062 228.561 129.492 226.712 129.492 224.238ZM144.199 208.73V213.867H147.93V217.383H144.199V229.18C144.199 229.987 144.355 230.573 144.668 230.938C144.993 231.289 145.566 231.465 146.387 231.465C146.934 231.465 147.487 231.4 148.047 231.27V234.941C146.966 235.241 145.924 235.391 144.922 235.391C141.276 235.391 139.453 233.379 139.453 229.355V217.383H135.977V213.867H139.453V208.73H144.199ZM150.098 224.238C150.098 222.168 150.508 220.306 151.328 218.652C152.148 216.986 153.301 215.71 154.785 214.824C156.27 213.926 157.975 213.477 159.902 213.477C162.754 213.477 165.065 214.395 166.836 216.23C168.62 218.066 169.583 220.501 169.727 223.535L169.746 224.648C169.746 226.732 169.342 228.594 168.535 230.234C167.741 231.875 166.595 233.145 165.098 234.043C163.613 234.941 161.895 235.391 159.941 235.391C156.96 235.391 154.57 234.401 152.773 232.422C150.99 230.43 150.098 227.78 150.098 224.473V224.238ZM154.844 224.648C154.844 226.823 155.293 228.529 156.191 229.766C157.09 230.99 158.34 231.602 159.941 231.602C161.543 231.602 162.786 230.977 163.672 229.727C164.57 228.477 165.02 226.647 165.02 224.238C165.02 222.103 164.557 220.41 163.633 219.16C162.721 217.91 161.478 217.285 159.902 217.285C158.353 217.285 157.122 217.904 156.211 219.141C155.299 220.365 154.844 222.201 154.844 224.648ZM192.266 224.648C192.266 227.917 191.523 230.527 190.039 232.48C188.555 234.421 186.562 235.391 184.062 235.391C181.745 235.391 179.889 234.629 178.496 233.105V243.125H173.75V213.867H178.125L178.32 216.016C179.714 214.323 181.608 213.477 184.004 213.477C186.582 213.477 188.6 214.44 190.059 216.367C191.53 218.281 192.266 220.944 192.266 224.355V224.648ZM187.539 224.238C187.539 222.129 187.116 220.456 186.27 219.219C185.436 217.982 184.238 217.363 182.676 217.363C180.736 217.363 179.342 218.164 178.496 219.766V229.141C179.355 230.781 180.762 231.602 182.715 231.602C184.225 231.602 185.404 230.996 186.25 229.785C187.109 228.561 187.539 226.712 187.539 224.238ZM207.93 235V217.383H204.707V213.867H207.93V211.934C207.93 209.59 208.581 207.78 209.883 206.504C211.185 205.228 213.008 204.59 215.352 204.59C216.185 204.59 217.07 204.707 218.008 204.941L217.891 208.652C217.37 208.548 216.764 208.496 216.074 208.496C213.809 208.496 212.676 209.661 212.676 211.992V213.867H216.973V217.383H212.676V235H207.93ZM219.551 224.238C219.551 222.168 219.961 220.306 220.781 218.652C221.602 216.986 222.754 215.71 224.238 214.824C225.723 213.926 227.428 213.477 229.355 213.477C232.207 213.477 234.518 214.395 236.289 216.23C238.073 218.066 239.036 220.501 239.18 223.535L239.199 224.648C239.199 226.732 238.796 228.594 237.988 230.234C237.194 231.875 236.048 233.145 234.551 234.043C233.066 234.941 231.348 235.391 229.395 235.391C226.413 235.391 224.023 234.401 222.227 232.422C220.443 230.43 219.551 227.78 219.551 224.473V224.238ZM224.297 224.648C224.297 226.823 224.746 228.529 225.645 229.766C226.543 230.99 227.793 231.602 229.395 231.602C230.996 231.602 232.24 230.977 233.125 229.727C234.023 228.477 234.473 226.647 234.473 224.238C234.473 222.103 234.01 220.41 233.086 219.16C232.174 217.91 230.931 217.285 229.355 217.285C227.806 217.285 226.576 217.904 225.664 219.141C224.753 220.365 224.297 222.201 224.297 224.648ZM254.277 218.203C253.652 218.099 253.008 218.047 252.344 218.047C250.169 218.047 248.704 218.88 247.949 220.547V235H243.203V213.867H247.734L247.852 216.23C248.997 214.395 250.586 213.477 252.617 213.477C253.294 213.477 253.854 213.568 254.297 213.75L254.277 218.203ZM273.184 208.73V213.867H276.914V217.383H273.184V229.18C273.184 229.987 273.34 230.573 273.652 230.938C273.978 231.289 274.551 231.465 275.371 231.465C275.918 231.465 276.471 231.4 277.031 231.27V234.941C275.951 235.241 274.909 235.391 273.906 235.391C270.26 235.391 268.438 233.379 268.438 229.355V217.383H264.961V213.867H268.438V208.73H273.184ZM285.234 216.172C286.784 214.375 288.743 213.477 291.113 213.477C295.618 213.477 297.904 216.048 297.969 221.191V235H293.223V221.367C293.223 219.909 292.904 218.88 292.266 218.281C291.641 217.669 290.716 217.363 289.492 217.363C287.591 217.363 286.172 218.21 285.234 219.902V235H280.488V205H285.234V216.172ZM312.09 235.391C309.082 235.391 306.641 234.447 304.766 232.559C302.904 230.658 301.973 228.132 301.973 224.98V224.395C301.973 222.285 302.376 220.404 303.184 218.75C304.004 217.083 305.15 215.788 306.621 214.863C308.092 213.939 309.733 213.477 311.543 213.477C314.421 213.477 316.641 214.395 318.203 216.23C319.779 218.066 320.566 220.664 320.566 224.023V225.938H306.758C306.901 227.682 307.48 229.062 308.496 230.078C309.525 231.094 310.814 231.602 312.363 231.602C314.538 231.602 316.309 230.723 317.676 228.965L320.234 231.406C319.388 232.669 318.255 233.652 316.836 234.355C315.43 235.046 313.848 235.391 312.09 235.391ZM311.523 217.285C310.221 217.285 309.167 217.741 308.359 218.652C307.565 219.564 307.057 220.833 306.836 222.461H315.879V222.109C315.775 220.521 315.352 219.323 314.609 218.516C313.867 217.695 312.839 217.285 311.523 217.285ZM335.898 235V217.383H332.676V213.867H335.898V211.934C335.898 209.59 336.549 207.78 337.852 206.504C339.154 205.228 340.977 204.59 343.32 204.59C344.154 204.59 345.039 204.707 345.977 204.941L345.859 208.652C345.339 208.548 344.733 208.496 344.043 208.496C341.777 208.496 340.645 209.661 340.645 211.992V213.867H344.941V217.383H340.645V235H335.898ZM361.211 232.93C359.818 234.57 357.839 235.391 355.273 235.391C352.982 235.391 351.243 234.72 350.059 233.379C348.887 232.038 348.301 230.098 348.301 227.559V213.867H353.047V227.5C353.047 230.182 354.16 231.523 356.387 231.523C358.691 231.523 360.247 230.697 361.055 229.043V213.867H365.801V235H361.328L361.211 232.93ZM376.582 208.73V213.867H380.312V217.383H376.582V229.18C376.582 229.987 376.738 230.573 377.051 230.938C377.376 231.289 377.949 231.465 378.77 231.465C379.316 231.465 379.87 231.4 380.43 231.27V234.941C379.349 235.241 378.307 235.391 377.305 235.391C373.659 235.391 371.836 233.379 371.836 229.355V217.383H368.359V213.867H371.836V208.73H376.582ZM396.758 232.93C395.365 234.57 393.385 235.391 390.82 235.391C388.529 235.391 386.79 234.72 385.605 233.379C384.434 232.038 383.848 230.098 383.848 227.559V213.867H388.594V227.5C388.594 230.182 389.707 231.523 391.934 231.523C394.238 231.523 395.794 230.697 396.602 229.043V213.867H401.348V235H396.875L396.758 232.93ZM417.246 218.203C416.621 218.099 415.977 218.047 415.312 218.047C413.138 218.047 411.673 218.88 410.918 220.547V235H406.172V213.867H410.703L410.82 216.23C411.966 214.395 413.555 213.477 415.586 213.477C416.263 213.477 416.823 213.568 417.266 213.75L417.246 218.203ZM429.16 235.391C426.152 235.391 423.711 234.447 421.836 232.559C419.974 230.658 419.043 228.132 419.043 224.98V224.395C419.043 222.285 419.447 220.404 420.254 218.75C421.074 217.083 422.22 215.788 423.691 214.863C425.163 213.939 426.803 213.477 428.613 213.477C431.491 213.477 433.711 214.395 435.273 216.23C436.849 218.066 437.637 220.664 437.637 224.023V225.938H423.828C423.971 227.682 424.551 229.062 425.566 230.078C426.595 231.094 427.884 231.602 429.434 231.602C431.608 231.602 433.379 230.723 434.746 228.965L437.305 231.406C436.458 232.669 435.326 233.652 433.906 234.355C432.5 235.046 430.918 235.391 429.16 235.391ZM428.594 217.285C427.292 217.285 426.237 217.741 425.43 218.652C424.635 219.564 424.128 220.833 423.906 222.461H432.949V222.109C432.845 220.521 432.422 219.323 431.68 218.516C430.938 217.695 429.909 217.285 428.594 217.285Z" fill="url(#paint7_linear)"/>
<path d="M82.3271 269.592H78.2139V281H76.5352V269.592H72.4307V268.203H82.3271V269.592ZM85.5967 272.642C86.3174 271.757 87.2549 271.314 88.4092 271.314C90.4189 271.314 91.4326 272.448 91.4502 274.716V281H89.8242V274.707C89.8184 274.021 89.6602 273.515 89.3496 273.187C89.0449 272.858 88.5674 272.694 87.917 272.694C87.3896 272.694 86.9268 272.835 86.5283 273.116C86.1299 273.397 85.8193 273.767 85.5967 274.224V281H83.9707V267.5H85.5967V272.642ZM97.8311 281.176C96.542 281.176 95.4932 280.754 94.6846 279.91C93.876 279.061 93.4717 277.927 93.4717 276.509V276.21C93.4717 275.267 93.6504 274.426 94.0078 273.688C94.3711 272.943 94.875 272.363 95.5195 271.947C96.1699 271.525 96.873 271.314 97.6289 271.314C98.8652 271.314 99.8262 271.722 100.512 272.536C101.197 273.351 101.54 274.517 101.54 276.034V276.711H95.0977C95.1211 277.648 95.3936 278.407 95.915 278.987C96.4424 279.562 97.1104 279.849 97.9189 279.849C98.4932 279.849 98.9795 279.731 99.3779 279.497C99.7764 279.263 100.125 278.952 100.424 278.565L101.417 279.339C100.62 280.563 99.4248 281.176 97.8311 281.176ZM97.6289 272.65C96.9727 272.65 96.4219 272.891 95.9766 273.371C95.5312 273.846 95.2559 274.514 95.1504 275.375H99.9141V275.252C99.8672 274.426 99.6445 273.787 99.2461 273.336C98.8477 272.879 98.3086 272.65 97.6289 272.65ZM109.433 271.49L109.485 272.686C110.212 271.771 111.161 271.314 112.333 271.314C114.343 271.314 115.356 272.448 115.374 274.716V281H113.748V274.707C113.742 274.021 113.584 273.515 113.273 273.187C112.969 272.858 112.491 272.694 111.841 272.694C111.313 272.694 110.851 272.835 110.452 273.116C110.054 273.397 109.743 273.767 109.521 274.224V281H107.895V271.49H109.433ZM121.772 281.176C120.483 281.176 119.435 280.754 118.626 279.91C117.817 279.061 117.413 277.927 117.413 276.509V276.21C117.413 275.267 117.592 274.426 117.949 273.688C118.312 272.943 118.816 272.363 119.461 271.947C120.111 271.525 120.814 271.314 121.57 271.314C122.807 271.314 123.768 271.722 124.453 272.536C125.139 273.351 125.481 274.517 125.481 276.034V276.711H119.039C119.062 277.648 119.335 278.407 119.856 278.987C120.384 279.562 121.052 279.849 121.86 279.849C122.435 279.849 122.921 279.731 123.319 279.497C123.718 279.263 124.066 278.952 124.365 278.565L125.358 279.339C124.562 280.563 123.366 281.176 121.772 281.176ZM121.57 272.65C120.914 272.65 120.363 272.891 119.918 273.371C119.473 273.846 119.197 274.514 119.092 275.375H123.855V275.252C123.809 274.426 123.586 273.787 123.188 273.336C122.789 272.879 122.25 272.65 121.57 272.65ZM135.791 278.759L137.619 271.49H139.245L136.477 281H135.158L132.847 273.793L130.597 281H129.278L126.519 271.49H128.136L130.008 278.609L132.223 271.49H133.532L135.791 278.759ZM150.548 281H148.913V270.163L145.635 271.367V269.891L150.293 268.142H150.548V281ZM162.176 276.702H163.951V278.029H162.176V281H160.541V278.029H154.714V277.071L160.444 268.203H162.176V276.702ZM156.56 276.702H160.541V270.427L160.348 270.778L156.56 276.702ZM171.817 281H170.191V271.49H171.817V281ZM170.06 268.968C170.06 268.704 170.139 268.481 170.297 268.3C170.461 268.118 170.701 268.027 171.018 268.027C171.334 268.027 171.574 268.118 171.738 268.3C171.902 268.481 171.984 268.704 171.984 268.968C171.984 269.231 171.902 269.451 171.738 269.627C171.574 269.803 171.334 269.891 171.018 269.891C170.701 269.891 170.461 269.803 170.297 269.627C170.139 269.451 170.06 269.231 170.06 268.968ZM175.966 271.49L176.019 272.686C176.745 271.771 177.694 271.314 178.866 271.314C180.876 271.314 181.89 272.448 181.907 274.716V281H180.281V274.707C180.275 274.021 180.117 273.515 179.807 273.187C179.502 272.858 179.024 272.694 178.374 272.694C177.847 272.694 177.384 272.835 176.985 273.116C176.587 273.397 176.276 273.767 176.054 274.224V281H174.428V271.49H175.966ZM188.174 279.849C188.754 279.849 189.261 279.673 189.694 279.321C190.128 278.97 190.368 278.53 190.415 278.003H191.953C191.924 278.548 191.736 279.066 191.391 279.559C191.045 280.051 190.582 280.443 190.002 280.736C189.428 281.029 188.818 281.176 188.174 281.176C186.879 281.176 185.848 280.745 185.08 279.884C184.318 279.017 183.938 277.833 183.938 276.333V276.061C183.938 275.135 184.107 274.312 184.447 273.591C184.787 272.87 185.273 272.311 185.906 271.912C186.545 271.514 187.298 271.314 188.165 271.314C189.231 271.314 190.116 271.634 190.819 272.272C191.528 272.911 191.906 273.74 191.953 274.76H190.415C190.368 274.145 190.134 273.641 189.712 273.248C189.296 272.85 188.78 272.65 188.165 272.65C187.339 272.65 186.697 272.949 186.24 273.547C185.789 274.139 185.563 274.997 185.563 276.122V276.43C185.563 277.525 185.789 278.369 186.24 278.961C186.691 279.553 187.336 279.849 188.174 279.849ZM195.407 272.642C196.128 271.757 197.065 271.314 198.22 271.314C200.229 271.314 201.243 272.448 201.261 274.716V281H199.635V274.707C199.629 274.021 199.471 273.515 199.16 273.187C198.855 272.858 198.378 272.694 197.728 272.694C197.2 272.694 196.737 272.835 196.339 273.116C195.94 273.397 195.63 273.767 195.407 274.224V281H193.781V267.5H195.407V272.642ZM216.211 276.351C216.211 277.804 215.877 278.973 215.209 279.857C214.541 280.736 213.645 281.176 212.52 281.176C211.318 281.176 210.39 280.751 209.733 279.901L209.654 281H208.16V267.5H209.786V272.536C210.442 271.722 211.348 271.314 212.502 271.314C213.656 271.314 214.562 271.751 215.218 272.624C215.88 273.497 216.211 274.692 216.211 276.21V276.351ZM214.585 276.166C214.585 275.059 214.371 274.203 213.943 273.6C213.516 272.996 212.9 272.694 212.098 272.694C211.025 272.694 210.255 273.192 209.786 274.188V278.302C210.284 279.298 211.061 279.796 212.115 279.796C212.895 279.796 213.501 279.494 213.935 278.891C214.368 278.287 214.585 277.379 214.585 276.166ZM222.214 281.176C220.925 281.176 219.876 280.754 219.067 279.91C218.259 279.061 217.854 277.927 217.854 276.509V276.21C217.854 275.267 218.033 274.426 218.391 273.688C218.754 272.943 219.258 272.363 219.902 271.947C220.553 271.525 221.256 271.314 222.012 271.314C223.248 271.314 224.209 271.722 224.895 272.536C225.58 273.351 225.923 274.517 225.923 276.034V276.711H219.48C219.504 277.648 219.776 278.407 220.298 278.987C220.825 279.562 221.493 279.849 222.302 279.849C222.876 279.849 223.362 279.731 223.761 279.497C224.159 279.263 224.508 278.952 224.807 278.565L225.8 279.339C225.003 280.563 223.808 281.176 222.214 281.176ZM222.012 272.65C221.355 272.65 220.805 272.891 220.359 273.371C219.914 273.846 219.639 274.514 219.533 275.375H224.297V275.252C224.25 274.426 224.027 273.787 223.629 273.336C223.23 272.879 222.691 272.65 222.012 272.65ZM229.342 279.673H234.905V281H227.355V279.805L232.603 272.835H227.435V271.49H234.642V272.642L229.342 279.673ZM240.548 281.176C239.259 281.176 238.21 280.754 237.401 279.91C236.593 279.061 236.188 277.927 236.188 276.509V276.21C236.188 275.267 236.367 274.426 236.725 273.688C237.088 272.943 237.592 272.363 238.236 271.947C238.887 271.525 239.59 271.314 240.346 271.314C241.582 271.314 242.543 271.722 243.229 272.536C243.914 273.351 244.257 274.517 244.257 276.034V276.711H237.814C237.838 277.648 238.11 278.407 238.632 278.987C239.159 279.562 239.827 279.849 240.636 279.849C241.21 279.849 241.696 279.731 242.095 279.497C242.493 279.263 242.842 278.952 243.141 278.565L244.134 279.339C243.337 280.563 242.142 281.176 240.548 281.176ZM240.346 272.65C239.689 272.65 239.139 272.891 238.693 273.371C238.248 273.846 237.973 274.514 237.867 275.375H242.631V275.252C242.584 274.426 242.361 273.787 241.963 273.336C241.564 272.879 241.025 272.65 240.346 272.65ZM247.913 281H246.287V267.5H247.913V281ZM254.47 281.176C253.181 281.176 252.132 280.754 251.323 279.91C250.515 279.061 250.11 277.927 250.11 276.509V276.21C250.11 275.267 250.289 274.426 250.646 273.688C251.01 272.943 251.514 272.363 252.158 271.947C252.809 271.525 253.512 271.314 254.268 271.314C255.504 271.314 256.465 271.722 257.15 272.536C257.836 273.351 258.179 274.517 258.179 276.034V276.711H251.736C251.76 277.648 252.032 278.407 252.554 278.987C253.081 279.562 253.749 279.849 254.558 279.849C255.132 279.849 255.618 279.731 256.017 279.497C256.415 279.263 256.764 278.952 257.062 278.565L258.056 279.339C257.259 280.563 256.063 281.176 254.47 281.176ZM254.268 272.65C253.611 272.65 253.061 272.891 252.615 273.371C252.17 273.846 251.895 274.514 251.789 275.375H256.553V275.252C256.506 274.426 256.283 273.787 255.885 273.336C255.486 272.879 254.947 272.65 254.268 272.65ZM265.605 278.478C265.605 278.038 265.438 277.698 265.104 277.458C264.776 277.212 264.199 277.001 263.373 276.825C262.553 276.649 261.899 276.438 261.413 276.192C260.933 275.946 260.575 275.653 260.341 275.313C260.112 274.974 259.998 274.569 259.998 274.101C259.998 273.321 260.326 272.662 260.982 272.123C261.645 271.584 262.488 271.314 263.514 271.314C264.592 271.314 265.465 271.593 266.133 272.149C266.807 272.706 267.144 273.418 267.144 274.285H265.509C265.509 273.84 265.318 273.456 264.938 273.134C264.562 272.812 264.088 272.65 263.514 272.65C262.922 272.65 262.459 272.779 262.125 273.037C261.791 273.295 261.624 273.632 261.624 274.048C261.624 274.44 261.779 274.736 262.09 274.936C262.4 275.135 262.96 275.325 263.769 275.507C264.583 275.688 265.242 275.905 265.746 276.157C266.25 276.409 266.622 276.714 266.862 277.071C267.108 277.423 267.231 277.854 267.231 278.363C267.231 279.213 266.892 279.896 266.212 280.411C265.532 280.921 264.65 281.176 263.566 281.176C262.805 281.176 262.131 281.041 261.545 280.771C260.959 280.502 260.499 280.127 260.165 279.646C259.837 279.16 259.673 278.636 259.673 278.073H261.299C261.328 278.618 261.545 279.052 261.949 279.374C262.359 279.69 262.898 279.849 263.566 279.849C264.182 279.849 264.674 279.726 265.043 279.479C265.418 279.228 265.605 278.894 265.605 278.478ZM274.887 278.478C274.887 278.038 274.72 277.698 274.386 277.458C274.058 277.212 273.48 277.001 272.654 276.825C271.834 276.649 271.181 276.438 270.694 276.192C270.214 275.946 269.856 275.653 269.622 275.313C269.394 274.974 269.279 274.569 269.279 274.101C269.279 273.321 269.607 272.662 270.264 272.123C270.926 271.584 271.77 271.314 272.795 271.314C273.873 271.314 274.746 271.593 275.414 272.149C276.088 272.706 276.425 273.418 276.425 274.285H274.79C274.79 273.84 274.6 273.456 274.219 273.134C273.844 272.812 273.369 272.65 272.795 272.65C272.203 272.65 271.74 272.779 271.406 273.037C271.072 273.295 270.905 273.632 270.905 274.048C270.905 274.44 271.061 274.736 271.371 274.936C271.682 275.135 272.241 275.325 273.05 275.507C273.864 275.688 274.523 275.905 275.027 276.157C275.531 276.409 275.903 276.714 276.144 277.071C276.39 277.423 276.513 277.854 276.513 278.363C276.513 279.213 276.173 279.896 275.493 280.411C274.813 280.921 273.932 281.176 272.848 281.176C272.086 281.176 271.412 281.041 270.826 280.771C270.24 280.502 269.78 280.127 269.446 279.646C269.118 279.16 268.954 278.636 268.954 278.073H270.58C270.609 278.618 270.826 279.052 271.23 279.374C271.641 279.69 272.18 279.849 272.848 279.849C273.463 279.849 273.955 279.726 274.324 279.479C274.699 279.228 274.887 278.894 274.887 278.478ZM282.7 276.166C282.7 274.707 283.046 273.535 283.737 272.65C284.429 271.76 285.334 271.314 286.453 271.314C287.566 271.314 288.448 271.695 289.099 272.457V267.5H290.725V281H289.23L289.151 279.98C288.501 280.777 287.596 281.176 286.436 281.176C285.334 281.176 284.435 280.725 283.737 279.822C283.046 278.92 282.7 277.742 282.7 276.289V276.166ZM284.326 276.351C284.326 277.429 284.549 278.272 284.994 278.882C285.439 279.491 286.055 279.796 286.84 279.796C287.871 279.796 288.624 279.333 289.099 278.407V274.039C288.612 273.143 287.865 272.694 286.857 272.694C286.061 272.694 285.439 273.002 284.994 273.617C284.549 274.232 284.326 275.144 284.326 276.351ZM295.022 281H293.396V271.49H295.022V281ZM293.265 268.968C293.265 268.704 293.344 268.481 293.502 268.3C293.666 268.118 293.906 268.027 294.223 268.027C294.539 268.027 294.779 268.118 294.943 268.3C295.107 268.481 295.189 268.704 295.189 268.968C295.189 269.231 295.107 269.451 294.943 269.627C294.779 269.803 294.539 269.891 294.223 269.891C293.906 269.891 293.666 269.803 293.502 269.627C293.344 269.451 293.265 269.231 293.265 268.968ZM303.17 278.478C303.17 278.038 303.003 277.698 302.669 277.458C302.341 277.212 301.764 277.001 300.938 276.825C300.117 276.649 299.464 276.438 298.978 276.192C298.497 275.946 298.14 275.653 297.905 275.313C297.677 274.974 297.562 274.569 297.562 274.101C297.562 273.321 297.891 272.662 298.547 272.123C299.209 271.584 300.053 271.314 301.078 271.314C302.156 271.314 303.029 271.593 303.697 272.149C304.371 272.706 304.708 273.418 304.708 274.285H303.073C303.073 273.84 302.883 273.456 302.502 273.134C302.127 272.812 301.652 272.65 301.078 272.65C300.486 272.65 300.023 272.779 299.689 273.037C299.355 273.295 299.188 273.632 299.188 274.048C299.188 274.44 299.344 274.736 299.654 274.936C299.965 275.135 300.524 275.325 301.333 275.507C302.147 275.688 302.807 275.905 303.311 276.157C303.814 276.409 304.187 276.714 304.427 277.071C304.673 277.423 304.796 277.854 304.796 278.363C304.796 279.213 304.456 279.896 303.776 280.411C303.097 280.921 302.215 281.176 301.131 281.176C300.369 281.176 299.695 281.041 299.109 280.771C298.523 280.502 298.063 280.127 297.729 279.646C297.401 279.16 297.237 278.636 297.237 278.073H298.863C298.893 278.618 299.109 279.052 299.514 279.374C299.924 279.69 300.463 279.849 301.131 279.849C301.746 279.849 302.238 279.726 302.607 279.479C302.982 279.228 303.17 278.894 303.17 278.478ZM314.947 276.351C314.947 277.798 314.616 278.964 313.954 279.849C313.292 280.733 312.396 281.176 311.265 281.176C310.11 281.176 309.202 280.81 308.54 280.077V284.656H306.914V271.49H308.399L308.479 272.545C309.141 271.725 310.061 271.314 311.238 271.314C312.381 271.314 313.283 271.745 313.945 272.606C314.613 273.468 314.947 274.666 314.947 276.201V276.351ZM313.321 276.166C313.321 275.094 313.093 274.247 312.636 273.626C312.179 273.005 311.552 272.694 310.755 272.694C309.771 272.694 309.032 273.131 308.54 274.004V278.548C309.026 279.415 309.771 279.849 310.772 279.849C311.552 279.849 312.17 279.541 312.627 278.926C313.09 278.305 313.321 277.385 313.321 276.166ZM318.788 281H317.162V267.5H318.788V281ZM327.27 281C327.176 280.812 327.1 280.479 327.041 279.998C326.285 280.783 325.383 281.176 324.334 281.176C323.396 281.176 322.626 280.912 322.022 280.385C321.425 279.852 321.126 279.178 321.126 278.363C321.126 277.373 321.501 276.605 322.251 276.061C323.007 275.51 324.067 275.234 325.433 275.234H327.015V274.487C327.015 273.919 326.845 273.468 326.505 273.134C326.165 272.794 325.664 272.624 325.002 272.624C324.422 272.624 323.936 272.771 323.543 273.063C323.15 273.356 322.954 273.711 322.954 274.127H321.319C321.319 273.652 321.486 273.195 321.82 272.756C322.16 272.311 322.617 271.959 323.191 271.701C323.771 271.443 324.407 271.314 325.099 271.314C326.194 271.314 327.053 271.59 327.674 272.141C328.295 272.686 328.617 273.438 328.641 274.399V278.776C328.641 279.649 328.752 280.344 328.975 280.859V281H327.27ZM324.571 279.761C325.081 279.761 325.564 279.629 326.021 279.365C326.479 279.102 326.81 278.759 327.015 278.337V276.386H325.74C323.748 276.386 322.752 276.969 322.752 278.135C322.752 278.645 322.922 279.043 323.262 279.33C323.602 279.617 324.038 279.761 324.571 279.761ZM334.16 278.618L336.375 271.49H338.115L334.292 282.468C333.7 284.05 332.76 284.841 331.471 284.841L331.163 284.814L330.557 284.7V283.382L330.996 283.417C331.547 283.417 331.975 283.306 332.279 283.083C332.59 282.86 332.845 282.453 333.044 281.861L333.404 280.895L330.012 271.49H331.787L334.16 278.618ZM343.608 276.157C343.608 275.226 343.79 274.388 344.153 273.644C344.522 272.899 345.032 272.325 345.683 271.921C346.339 271.517 347.086 271.314 347.924 271.314C349.219 271.314 350.265 271.763 351.062 272.659C351.864 273.556 352.266 274.748 352.266 276.236V276.351C352.266 277.276 352.087 278.108 351.729 278.847C351.378 279.579 350.871 280.15 350.209 280.561C349.553 280.971 348.797 281.176 347.941 281.176C346.652 281.176 345.606 280.728 344.804 279.831C344.007 278.935 343.608 277.748 343.608 276.271V276.157ZM345.243 276.351C345.243 277.405 345.486 278.252 345.973 278.891C346.465 279.529 347.121 279.849 347.941 279.849C348.768 279.849 349.424 279.526 349.91 278.882C350.396 278.231 350.64 277.323 350.64 276.157C350.64 275.114 350.391 274.271 349.893 273.626C349.4 272.976 348.744 272.65 347.924 272.65C347.121 272.65 346.474 272.97 345.981 273.608C345.489 274.247 345.243 275.161 345.243 276.351ZM355.104 281V272.747H353.602V271.49H355.104V270.515C355.104 269.495 355.377 268.707 355.922 268.15C356.467 267.594 357.237 267.315 358.233 267.315C358.608 267.315 358.98 267.365 359.35 267.465L359.262 268.783C358.986 268.73 358.693 268.704 358.383 268.704C357.855 268.704 357.448 268.859 357.161 269.17C356.874 269.475 356.73 269.914 356.73 270.488V271.49H358.761V272.747H356.73V281H355.104ZM361.362 281V272.747H359.859V271.49H361.362V270.515C361.362 269.495 361.635 268.707 362.18 268.15C362.725 267.594 363.495 267.315 364.491 267.315C364.866 267.315 365.238 267.365 365.607 267.465L365.52 268.783C365.244 268.73 364.951 268.704 364.641 268.704C364.113 268.704 363.706 268.859 363.419 269.17C363.132 269.475 362.988 269.914 362.988 270.488V271.49H365.019V272.747H362.988V281H361.362ZM370.556 281.176C369.267 281.176 368.218 280.754 367.409 279.91C366.601 279.061 366.196 277.927 366.196 276.509V276.21C366.196 275.267 366.375 274.426 366.732 273.688C367.096 272.943 367.6 272.363 368.244 271.947C368.895 271.525 369.598 271.314 370.354 271.314C371.59 271.314 372.551 271.722 373.236 272.536C373.922 273.351 374.265 274.517 374.265 276.034V276.711H367.822C367.846 277.648 368.118 278.407 368.64 278.987C369.167 279.562 369.835 279.849 370.644 279.849C371.218 279.849 371.704 279.731 372.103 279.497C372.501 279.263 372.85 278.952 373.148 278.565L374.142 279.339C373.345 280.563 372.149 281.176 370.556 281.176ZM370.354 272.65C369.697 272.65 369.146 272.891 368.701 273.371C368.256 273.846 367.98 274.514 367.875 275.375H372.639V275.252C372.592 274.426 372.369 273.787 371.971 273.336C371.572 272.879 371.033 272.65 370.354 272.65ZM380.751 272.949C380.505 272.908 380.238 272.888 379.951 272.888C378.885 272.888 378.161 273.342 377.78 274.25V281H376.154V271.49H377.736L377.763 272.589C378.296 271.739 379.052 271.314 380.03 271.314C380.347 271.314 380.587 271.355 380.751 271.438V272.949ZM384.021 281H382.395V271.49H384.021V281ZM382.263 268.968C382.263 268.704 382.342 268.481 382.5 268.3C382.664 268.118 382.904 268.027 383.221 268.027C383.537 268.027 383.777 268.118 383.941 268.3C384.105 268.481 384.188 268.704 384.188 268.968C384.188 269.231 384.105 269.451 383.941 269.627C383.777 269.803 383.537 269.891 383.221 269.891C382.904 269.891 382.664 269.803 382.5 269.627C382.342 269.451 382.263 269.231 382.263 268.968ZM388.169 271.49L388.222 272.686C388.948 271.771 389.897 271.314 391.069 271.314C393.079 271.314 394.093 272.448 394.11 274.716V281H392.484V274.707C392.479 274.021 392.32 273.515 392.01 273.187C391.705 272.858 391.228 272.694 390.577 272.694C390.05 272.694 389.587 272.835 389.188 273.116C388.79 273.397 388.479 273.767 388.257 274.224V281H386.631V271.49H388.169ZM396.176 276.166C396.176 274.684 396.519 273.506 397.204 272.633C397.89 271.754 398.798 271.314 399.929 271.314C401.089 271.314 401.994 271.725 402.645 272.545L402.724 271.49H404.209V280.771C404.209 282.002 403.843 282.972 403.11 283.681C402.384 284.39 401.405 284.744 400.175 284.744C399.489 284.744 398.818 284.598 398.162 284.305C397.506 284.012 397.005 283.61 396.659 283.101L397.503 282.125C398.2 282.986 399.053 283.417 400.061 283.417C400.852 283.417 401.467 283.194 401.906 282.749C402.352 282.304 402.574 281.677 402.574 280.868V280.051C401.924 280.801 401.036 281.176 399.911 281.176C398.798 281.176 397.896 280.728 397.204 279.831C396.519 278.935 396.176 277.713 396.176 276.166ZM397.811 276.351C397.811 277.423 398.03 278.267 398.47 278.882C398.909 279.491 399.524 279.796 400.315 279.796C401.341 279.796 402.094 279.33 402.574 278.398V274.057C402.076 273.148 401.329 272.694 400.333 272.694C399.542 272.694 398.924 273.002 398.479 273.617C398.033 274.232 397.811 275.144 397.811 276.351ZM417.006 281C416.912 280.812 416.836 280.479 416.777 279.998C416.021 280.783 415.119 281.176 414.07 281.176C413.133 281.176 412.362 280.912 411.759 280.385C411.161 279.852 410.862 279.178 410.862 278.363C410.862 277.373 411.237 276.605 411.987 276.061C412.743 275.51 413.804 275.234 415.169 275.234H416.751V274.487C416.751 273.919 416.581 273.468 416.241 273.134C415.901 272.794 415.4 272.624 414.738 272.624C414.158 272.624 413.672 272.771 413.279 273.063C412.887 273.356 412.69 273.711 412.69 274.127H411.056C411.056 273.652 411.223 273.195 411.557 272.756C411.896 272.311 412.354 271.959 412.928 271.701C413.508 271.443 414.144 271.314 414.835 271.314C415.931 271.314 416.789 271.59 417.41 272.141C418.031 272.686 418.354 273.438 418.377 274.399V278.776C418.377 279.649 418.488 280.344 418.711 280.859V281H417.006ZM414.308 279.761C414.817 279.761 415.301 279.629 415.758 279.365C416.215 279.102 416.546 278.759 416.751 278.337V276.386H415.477C413.484 276.386 412.488 276.969 412.488 278.135C412.488 278.645 412.658 279.043 412.998 279.33C413.338 279.617 413.774 279.761 414.308 279.761ZM432.088 276.702H433.863V278.029H432.088V281H430.453V278.029H424.626V277.071L430.356 268.203H432.088V276.702ZM426.472 276.702H430.453V270.427L430.26 270.778L426.472 276.702ZM438.152 276.597L437.133 277.66V281H435.507V267.5H437.133V275.665L438.003 274.619L440.965 271.49H442.942L439.242 275.463L443.373 281H441.466L438.152 276.597ZM72.835 297.166C72.835 295.707 73.1807 294.535 73.8721 293.65C74.5635 292.76 75.4688 292.314 76.5879 292.314C77.7012 292.314 78.583 292.695 79.2334 293.457V288.5H80.8594V302H79.3652L79.2861 300.98C78.6357 301.777 77.7305 302.176 76.5703 302.176C75.4688 302.176 74.5693 301.725 73.8721 300.822C73.1807 299.92 72.835 298.742 72.835 297.289V297.166ZM74.4609 297.351C74.4609 298.429 74.6836 299.272 75.1289 299.882C75.5742 300.491 76.1895 300.796 76.9746 300.796C78.0059 300.796 78.7588 300.333 79.2334 299.407V295.039C78.7471 294.143 78 293.694 76.9922 293.694C76.1953 293.694 75.5742 294.002 75.1289 294.617C74.6836 295.232 74.4609 296.144 74.4609 297.351ZM85.1572 302H83.5312V292.49H85.1572V302ZM83.3994 289.968C83.3994 289.704 83.4785 289.481 83.6367 289.3C83.8008 289.118 84.041 289.027 84.3574 289.027C84.6738 289.027 84.9141 289.118 85.0781 289.3C85.2422 289.481 85.3242 289.704 85.3242 289.968C85.3242 290.231 85.2422 290.451 85.0781 290.627C84.9141 290.803 84.6738 290.891 84.3574 290.891C84.041 290.891 83.8008 290.803 83.6367 290.627C83.4785 290.451 83.3994 290.231 83.3994 289.968ZM93.3047 299.478C93.3047 299.038 93.1377 298.698 92.8037 298.458C92.4756 298.212 91.8984 298.001 91.0723 297.825C90.252 297.649 89.5986 297.438 89.1123 297.192C88.6318 296.946 88.2744 296.653 88.04 296.313C87.8115 295.974 87.6973 295.569 87.6973 295.101C87.6973 294.321 88.0254 293.662 88.6816 293.123C89.3438 292.584 90.1875 292.314 91.2129 292.314C92.291 292.314 93.1641 292.593 93.832 293.149C94.5059 293.706 94.8428 294.418 94.8428 295.285H93.208C93.208 294.84 93.0176 294.456 92.6367 294.134C92.2617 293.812 91.7871 293.65 91.2129 293.65C90.6211 293.65 90.1582 293.779 89.8242 294.037C89.4902 294.295 89.3232 294.632 89.3232 295.048C89.3232 295.44 89.4785 295.736 89.7891 295.936C90.0996 296.135 90.6592 296.325 91.4678 296.507C92.2822 296.688 92.9414 296.905 93.4453 297.157C93.9492 297.409 94.3213 297.714 94.5615 298.071C94.8076 298.423 94.9307 298.854 94.9307 299.363C94.9307 300.213 94.5908 300.896 93.9111 301.411C93.2314 301.921 92.3496 302.176 91.2656 302.176C90.5039 302.176 89.8301 302.041 89.2441 301.771C88.6582 301.502 88.1982 301.127 87.8643 300.646C87.5361 300.16 87.3721 299.636 87.3721 299.073H88.998C89.0273 299.618 89.2441 300.052 89.6484 300.374C90.0586 300.69 90.5977 300.849 91.2656 300.849C91.8809 300.849 92.373 300.726 92.7422 300.479C93.1172 300.228 93.3047 299.894 93.3047 299.478ZM105.082 297.351C105.082 298.798 104.751 299.964 104.089 300.849C103.427 301.733 102.53 302.176 101.399 302.176C100.245 302.176 99.3369 301.81 98.6748 301.077V305.656H97.0488V292.49H98.5342L98.6133 293.545C99.2754 292.725 100.195 292.314 101.373 292.314C102.516 292.314 103.418 292.745 104.08 293.606C104.748 294.468 105.082 295.666 105.082 297.201V297.351ZM103.456 297.166C103.456 296.094 103.228 295.247 102.771 294.626C102.313 294.005 101.687 293.694 100.89 293.694C99.9053 293.694 99.167 294.131 98.6748 295.004V299.548C99.1611 300.415 99.9053 300.849 100.907 300.849C101.687 300.849 102.305 300.541 102.762 299.926C103.225 299.305 103.456 298.385 103.456 297.166ZM108.923 302H107.297V288.5H108.923V302ZM117.404 302C117.311 301.812 117.234 301.479 117.176 300.998C116.42 301.783 115.518 302.176 114.469 302.176C113.531 302.176 112.761 301.912 112.157 301.385C111.56 300.852 111.261 300.178 111.261 299.363C111.261 298.373 111.636 297.605 112.386 297.061C113.142 296.51 114.202 296.234 115.567 296.234H117.149V295.487C117.149 294.919 116.979 294.468 116.64 294.134C116.3 293.794 115.799 293.624 115.137 293.624C114.557 293.624 114.07 293.771 113.678 294.063C113.285 294.356 113.089 294.711 113.089 295.127H111.454C111.454 294.652 111.621 294.195 111.955 293.756C112.295 293.311 112.752 292.959 113.326 292.701C113.906 292.443 114.542 292.314 115.233 292.314C116.329 292.314 117.188 292.59 117.809 293.141C118.43 293.686 118.752 294.438 118.775 295.399V299.776C118.775 300.649 118.887 301.344 119.109 301.859V302H117.404ZM114.706 300.761C115.216 300.761 115.699 300.629 116.156 300.365C116.613 300.102 116.944 299.759 117.149 299.337V297.386H115.875C113.883 297.386 112.887 297.969 112.887 299.135C112.887 299.645 113.057 300.043 113.396 300.33C113.736 300.617 114.173 300.761 114.706 300.761ZM124.295 299.618L126.51 292.49H128.25L124.427 303.468C123.835 305.05 122.895 305.841 121.605 305.841L121.298 305.814L120.691 305.7V304.382L121.131 304.417C121.682 304.417 122.109 304.306 122.414 304.083C122.725 303.86 122.979 303.453 123.179 302.861L123.539 301.895L120.146 292.49H121.922L124.295 299.618ZM142.594 299.759L144.422 292.49H146.048L143.279 302H141.961L139.649 294.793L137.399 302H136.081L133.321 292.49H134.938L136.811 299.609L139.025 292.49H140.335L142.594 299.759ZM149.476 302H147.85V292.49H149.476V302ZM147.718 289.968C147.718 289.704 147.797 289.481 147.955 289.3C148.119 289.118 148.359 289.027 148.676 289.027C148.992 289.027 149.232 289.118 149.396 289.3C149.561 289.481 149.643 289.704 149.643 289.968C149.643 290.231 149.561 290.451 149.396 290.627C149.232 290.803 148.992 290.891 148.676 290.891C148.359 290.891 148.119 290.803 147.955 290.627C147.797 290.451 147.718 290.231 147.718 289.968ZM154.292 290.188V292.49H156.067V293.747H154.292V299.645C154.292 300.025 154.371 300.312 154.529 300.506C154.688 300.693 154.957 300.787 155.338 300.787C155.525 300.787 155.783 300.752 156.111 300.682V302C155.684 302.117 155.268 302.176 154.863 302.176C154.137 302.176 153.589 301.956 153.22 301.517C152.851 301.077 152.666 300.453 152.666 299.645V293.747H150.935V292.49H152.666V290.188H154.292ZM159.601 293.642C160.321 292.757 161.259 292.314 162.413 292.314C164.423 292.314 165.437 293.448 165.454 295.716V302H163.828V295.707C163.822 295.021 163.664 294.515 163.354 294.187C163.049 293.858 162.571 293.694 161.921 293.694C161.394 293.694 160.931 293.835 160.532 294.116C160.134 294.397 159.823 294.767 159.601 295.224V302H157.975V288.5H159.601V293.642ZM174.56 290.188V292.49H176.335V293.747H174.56V299.645C174.56 300.025 174.639 300.312 174.797 300.506C174.955 300.693 175.225 300.787 175.605 300.787C175.793 300.787 176.051 300.752 176.379 300.682V302C175.951 302.117 175.535 302.176 175.131 302.176C174.404 302.176 173.856 301.956 173.487 301.517C173.118 301.077 172.934 300.453 172.934 299.645V293.747H171.202V292.49H172.934V290.188H174.56ZM177.636 297.157C177.636 296.226 177.817 295.388 178.181 294.644C178.55 293.899 179.06 293.325 179.71 292.921C180.366 292.517 181.113 292.314 181.951 292.314C183.246 292.314 184.292 292.763 185.089 293.659C185.892 294.556 186.293 295.748 186.293 297.236V297.351C186.293 298.276 186.114 299.108 185.757 299.847C185.405 300.579 184.898 301.15 184.236 301.561C183.58 301.971 182.824 302.176 181.969 302.176C180.68 302.176 179.634 301.728 178.831 300.831C178.034 299.935 177.636 298.748 177.636 297.271V297.157ZM179.271 297.351C179.271 298.405 179.514 299.252 180 299.891C180.492 300.529 181.148 300.849 181.969 300.849C182.795 300.849 183.451 300.526 183.938 299.882C184.424 299.231 184.667 298.323 184.667 297.157C184.667 296.114 184.418 295.271 183.92 294.626C183.428 293.976 182.771 293.65 181.951 293.65C181.148 293.65 180.501 293.97 180.009 294.608C179.517 295.247 179.271 296.161 179.271 297.351ZM194.203 301.06C193.57 301.804 192.642 302.176 191.417 302.176C190.403 302.176 189.63 301.883 189.097 301.297C188.569 300.705 188.303 299.832 188.297 298.678V292.49H189.923V298.634C189.923 300.075 190.509 300.796 191.681 300.796C192.923 300.796 193.749 300.333 194.159 299.407V292.49H195.785V302H194.238L194.203 301.06ZM202.078 300.849C202.658 300.849 203.165 300.673 203.599 300.321C204.032 299.97 204.272 299.53 204.319 299.003H205.857C205.828 299.548 205.641 300.066 205.295 300.559C204.949 301.051 204.486 301.443 203.906 301.736C203.332 302.029 202.723 302.176 202.078 302.176C200.783 302.176 199.752 301.745 198.984 300.884C198.223 300.017 197.842 298.833 197.842 297.333V297.061C197.842 296.135 198.012 295.312 198.352 294.591C198.691 293.87 199.178 293.311 199.811 292.912C200.449 292.514 201.202 292.314 202.069 292.314C203.136 292.314 204.021 292.634 204.724 293.272C205.433 293.911 205.811 294.74 205.857 295.76H204.319C204.272 295.145 204.038 294.641 203.616 294.248C203.2 293.85 202.685 293.65 202.069 293.65C201.243 293.65 200.602 293.949 200.145 294.547C199.693 295.139 199.468 295.997 199.468 297.122V297.43C199.468 298.525 199.693 299.369 200.145 299.961C200.596 300.553 201.24 300.849 202.078 300.849ZM209.312 293.642C210.032 292.757 210.97 292.314 212.124 292.314C214.134 292.314 215.147 293.448 215.165 295.716V302H213.539V295.707C213.533 295.021 213.375 294.515 213.064 294.187C212.76 293.858 212.282 293.694 211.632 293.694C211.104 293.694 210.642 293.835 210.243 294.116C209.845 294.397 209.534 294.767 209.312 295.224V302H207.686V288.5H209.312V293.642ZM227.602 299.478C227.602 299.038 227.435 298.698 227.101 298.458C226.772 298.212 226.195 298.001 225.369 297.825C224.549 297.649 223.896 297.438 223.409 297.192C222.929 296.946 222.571 296.653 222.337 296.313C222.108 295.974 221.994 295.569 221.994 295.101C221.994 294.321 222.322 293.662 222.979 293.123C223.641 292.584 224.484 292.314 225.51 292.314C226.588 292.314 227.461 292.593 228.129 293.149C228.803 293.706 229.14 294.418 229.14 295.285H227.505C227.505 294.84 227.314 294.456 226.934 294.134C226.559 293.812 226.084 293.65 225.51 293.65C224.918 293.65 224.455 293.779 224.121 294.037C223.787 294.295 223.62 294.632 223.62 295.048C223.62 295.44 223.775 295.736 224.086 295.936C224.396 296.135 224.956 296.325 225.765 296.507C226.579 296.688 227.238 296.905 227.742 297.157C228.246 297.409 228.618 297.714 228.858 298.071C229.104 298.423 229.228 298.854 229.228 299.363C229.228 300.213 228.888 300.896 228.208 301.411C227.528 301.921 226.646 302.176 225.562 302.176C224.801 302.176 224.127 302.041 223.541 301.771C222.955 301.502 222.495 301.127 222.161 300.646C221.833 300.16 221.669 299.636 221.669 299.073H223.295C223.324 299.618 223.541 300.052 223.945 300.374C224.355 300.69 224.895 300.849 225.562 300.849C226.178 300.849 226.67 300.726 227.039 300.479C227.414 300.228 227.602 299.894 227.602 299.478ZM235.16 300.849C235.74 300.849 236.247 300.673 236.681 300.321C237.114 299.97 237.354 299.53 237.401 299.003H238.939C238.91 299.548 238.723 300.066 238.377 300.559C238.031 301.051 237.568 301.443 236.988 301.736C236.414 302.029 235.805 302.176 235.16 302.176C233.865 302.176 232.834 301.745 232.066 300.884C231.305 300.017 230.924 298.833 230.924 297.333V297.061C230.924 296.135 231.094 295.312 231.434 294.591C231.773 293.87 232.26 293.311 232.893 292.912C233.531 292.514 234.284 292.314 235.151 292.314C236.218 292.314 237.103 292.634 237.806 293.272C238.515 293.911 238.893 294.74 238.939 295.76H237.401C237.354 295.145 237.12 294.641 236.698 294.248C236.282 293.85 235.767 293.65 235.151 293.65C234.325 293.65 233.684 293.949 233.227 294.547C232.775 295.139 232.55 295.997 232.55 297.122V297.43C232.55 298.525 232.775 299.369 233.227 299.961C233.678 300.553 234.322 300.849 235.16 300.849ZM245.364 293.949C245.118 293.908 244.852 293.888 244.564 293.888C243.498 293.888 242.774 294.342 242.394 295.25V302H240.768V292.49H242.35L242.376 293.589C242.909 292.739 243.665 292.314 244.644 292.314C244.96 292.314 245.2 292.355 245.364 292.438V293.949ZM250.638 302.176C249.349 302.176 248.3 301.754 247.491 300.91C246.683 300.061 246.278 298.927 246.278 297.509V297.21C246.278 296.267 246.457 295.426 246.814 294.688C247.178 293.943 247.682 293.363 248.326 292.947C248.977 292.525 249.68 292.314 250.436 292.314C251.672 292.314 252.633 292.722 253.318 293.536C254.004 294.351 254.347 295.517 254.347 297.034V297.711H247.904C247.928 298.648 248.2 299.407 248.722 299.987C249.249 300.562 249.917 300.849 250.726 300.849C251.3 300.849 251.786 300.731 252.185 300.497C252.583 300.263 252.932 299.952 253.23 299.565L254.224 300.339C253.427 301.563 252.231 302.176 250.638 302.176ZM250.436 293.65C249.779 293.65 249.229 293.891 248.783 294.371C248.338 294.846 248.062 295.514 247.957 296.375H252.721V296.252C252.674 295.426 252.451 294.787 252.053 294.336C251.654 293.879 251.115 293.65 250.436 293.65ZM260.183 302.176C258.894 302.176 257.845 301.754 257.036 300.91C256.228 300.061 255.823 298.927 255.823 297.509V297.21C255.823 296.267 256.002 295.426 256.359 294.688C256.723 293.943 257.227 293.363 257.871 292.947C258.521 292.525 259.225 292.314 259.98 292.314C261.217 292.314 262.178 292.722 262.863 293.536C263.549 294.351 263.892 295.517 263.892 297.034V297.711H257.449C257.473 298.648 257.745 299.407 258.267 299.987C258.794 300.562 259.462 300.849 260.271 300.849C260.845 300.849 261.331 300.731 261.729 300.497C262.128 300.263 262.477 299.952 262.775 299.565L263.769 300.339C262.972 301.563 261.776 302.176 260.183 302.176ZM259.98 293.65C259.324 293.65 258.773 293.891 258.328 294.371C257.883 294.846 257.607 295.514 257.502 296.375H262.266V296.252C262.219 295.426 261.996 294.787 261.598 294.336C261.199 293.879 260.66 293.65 259.98 293.65ZM267.319 292.49L267.372 293.686C268.099 292.771 269.048 292.314 270.22 292.314C272.229 292.314 273.243 293.448 273.261 295.716V302H271.635V295.707C271.629 295.021 271.471 294.515 271.16 294.187C270.855 293.858 270.378 293.694 269.728 293.694C269.2 293.694 268.737 293.835 268.339 294.116C267.94 294.397 267.63 294.767 267.407 295.224V302H265.781V292.49H267.319ZM275.748 301.147C275.748 300.866 275.83 300.632 275.994 300.444C276.164 300.257 276.416 300.163 276.75 300.163C277.084 300.163 277.336 300.257 277.506 300.444C277.682 300.632 277.77 300.866 277.77 301.147C277.77 301.417 277.682 301.643 277.506 301.824C277.336 302.006 277.084 302.097 276.75 302.097C276.416 302.097 276.164 302.006 275.994 301.824C275.83 301.643 275.748 301.417 275.748 301.147Z" fill="#4D4758"/>
<rect x="73.5" y="347.5" width="105" height="30" fill="white" stroke="#6CAB9F" stroke-width="3"/>
<rect x="334" width="569" height="480"/>
<rect x="208" y="346" width="108" height="33" fill="#6CAB9F"/>
<path d="M231.897 365.517H227.767L226.902 368H224.976L229.004 357.336H230.667L234.703 368H232.769L231.897 365.517ZM228.287 364.023H231.377L229.832 359.599L228.287 364.023ZM235.413 363.979C235.413 362.758 235.696 361.779 236.263 361.042C236.829 360.3 237.588 359.929 238.541 359.929C239.38 359.929 240.059 360.222 240.577 360.808V356.75H242.356V368H240.745L240.657 367.18C240.125 367.824 239.415 368.146 238.526 368.146C237.598 368.146 236.846 367.773 236.27 367.026C235.699 366.279 235.413 365.263 235.413 363.979ZM237.193 364.133C237.193 364.938 237.347 365.568 237.654 366.022C237.967 366.472 238.409 366.696 238.98 366.696C239.708 366.696 240.24 366.372 240.577 365.722V362.338C240.249 361.704 239.722 361.386 238.995 361.386C238.418 361.386 237.974 361.616 237.662 362.075C237.349 362.529 237.193 363.215 237.193 364.133ZM243.88 363.979C243.88 362.758 244.163 361.779 244.729 361.042C245.296 360.3 246.055 359.929 247.007 359.929C247.847 359.929 248.526 360.222 249.043 360.808V356.75H250.823V368H249.212L249.124 367.18C248.592 367.824 247.881 368.146 246.993 368.146C246.065 368.146 245.313 367.773 244.737 367.026C244.166 366.279 243.88 365.263 243.88 363.979ZM245.66 364.133C245.66 364.938 245.813 365.568 246.121 366.022C246.434 366.472 246.875 366.696 247.447 366.696C248.174 366.696 248.707 366.372 249.043 365.722V362.338C248.716 361.704 248.189 361.386 247.461 361.386C246.885 361.386 246.441 361.616 246.128 362.075C245.816 362.529 245.66 363.215 245.66 364.133ZM258.645 358.149V360.075H260.044V361.394H258.645V365.817C258.645 366.12 258.704 366.34 258.821 366.477C258.943 366.608 259.158 366.674 259.466 366.674C259.671 366.674 259.878 366.65 260.088 366.601V367.978C259.683 368.09 259.292 368.146 258.916 368.146C257.549 368.146 256.866 367.392 256.866 365.883V361.394H255.562V360.075H256.866V358.149H258.645ZM260.857 363.964C260.857 363.188 261.011 362.49 261.319 361.87C261.626 361.245 262.059 360.766 262.615 360.434C263.172 360.097 263.812 359.929 264.534 359.929C265.604 359.929 266.47 360.273 267.134 360.961C267.803 361.65 268.165 362.563 268.218 363.701L268.226 364.118C268.226 364.899 268.074 365.598 267.771 366.213C267.474 366.828 267.044 367.304 266.482 367.641C265.926 367.978 265.281 368.146 264.549 368.146C263.431 368.146 262.535 367.775 261.861 367.033C261.192 366.286 260.857 365.292 260.857 364.052V363.964ZM262.637 364.118C262.637 364.934 262.806 365.573 263.143 366.037C263.479 366.496 263.948 366.726 264.549 366.726C265.149 366.726 265.616 366.491 265.948 366.022C266.285 365.554 266.453 364.868 266.453 363.964C266.453 363.164 266.28 362.529 265.933 362.06C265.591 361.591 265.125 361.357 264.534 361.357C263.953 361.357 263.492 361.589 263.15 362.053C262.808 362.512 262.637 363.2 262.637 364.118ZM276.722 366.726C277.166 366.726 277.535 366.596 277.828 366.337C278.121 366.079 278.277 365.759 278.296 365.378H279.974C279.954 365.871 279.8 366.333 279.512 366.762C279.224 367.187 278.833 367.524 278.34 367.773C277.847 368.022 277.315 368.146 276.744 368.146C275.635 368.146 274.756 367.788 274.107 367.07C273.458 366.352 273.133 365.361 273.133 364.096V363.913C273.133 362.707 273.455 361.743 274.1 361.02C274.744 360.292 275.623 359.929 276.736 359.929C277.679 359.929 278.445 360.205 279.036 360.756C279.632 361.303 279.944 362.023 279.974 362.917H278.296C278.277 362.463 278.121 362.089 277.828 361.796C277.54 361.503 277.171 361.357 276.722 361.357C276.145 361.357 275.701 361.567 275.389 361.987C275.076 362.402 274.917 363.034 274.913 363.884V364.169C274.913 365.029 275.066 365.671 275.374 366.096C275.687 366.516 276.136 366.726 276.722 366.726ZM286.053 368C285.975 367.849 285.906 367.602 285.848 367.26C285.281 367.851 284.588 368.146 283.768 368.146C282.972 368.146 282.322 367.919 281.819 367.465C281.316 367.011 281.065 366.45 281.065 365.781C281.065 364.936 281.377 364.289 282.002 363.84C282.632 363.386 283.531 363.159 284.698 363.159H285.789V362.639C285.789 362.229 285.674 361.901 285.445 361.657C285.215 361.408 284.866 361.284 284.397 361.284C283.992 361.284 283.66 361.386 283.401 361.591C283.143 361.792 283.013 362.048 283.013 362.36H281.233C281.233 361.926 281.377 361.521 281.666 361.145C281.954 360.764 282.344 360.466 282.837 360.251C283.335 360.036 283.89 359.929 284.5 359.929C285.428 359.929 286.167 360.163 286.719 360.632C287.271 361.096 287.554 361.75 287.569 362.595V366.169C287.569 366.882 287.669 367.451 287.869 367.875V368H286.053ZM284.097 366.718C284.449 366.718 284.778 366.633 285.086 366.462C285.398 366.291 285.633 366.062 285.789 365.773V364.279H284.83C284.17 364.279 283.675 364.394 283.343 364.624C283.011 364.853 282.845 365.178 282.845 365.598C282.845 365.939 282.957 366.213 283.182 366.418C283.411 366.618 283.716 366.718 284.097 366.718ZM293.582 361.701C293.348 361.662 293.106 361.643 292.857 361.643C292.041 361.643 291.492 361.955 291.209 362.58V368H289.429V360.075H291.128L291.172 360.961C291.602 360.273 292.198 359.929 292.959 359.929C293.213 359.929 293.423 359.963 293.589 360.031L293.582 361.701ZM297.303 358.149V360.075H298.702V361.394H297.303V365.817C297.303 366.12 297.361 366.34 297.479 366.477C297.601 366.608 297.815 366.674 298.123 366.674C298.328 366.674 298.536 366.65 298.746 366.601V367.978C298.34 368.09 297.95 368.146 297.574 368.146C296.207 368.146 295.523 367.392 295.523 365.883V361.394H294.219V360.075H295.523V358.149H297.303Z" fill="white"/>
<path d="M87.0513 368H85.2788V359.438L82.6641 360.332V358.83L86.8242 357.299H87.0513V368ZM96.7778 364.199H98.1035V365.627H96.7778V368H94.998V365.627H90.3911L90.3398 364.543L94.9395 357.336H96.7778V364.199ZM92.2075 364.199H94.998V359.746L94.8662 359.98L92.2075 364.199ZM105.259 368H103.414V357.336H105.259V368ZM115.997 368H114.144L109.39 360.434V368H107.537V357.336H109.39L114.158 364.931V357.336H115.997V368ZM126.324 364.528C126.216 365.666 125.796 366.555 125.064 367.194C124.332 367.829 123.357 368.146 122.142 368.146C121.292 368.146 120.542 367.946 119.893 367.546C119.249 367.141 118.75 366.567 118.399 365.825C118.047 365.083 117.864 364.221 117.85 363.239V362.243C117.85 361.237 118.028 360.351 118.384 359.584C118.741 358.818 119.251 358.227 119.915 357.812C120.584 357.397 121.355 357.189 122.229 357.189C123.406 357.189 124.354 357.509 125.071 358.149C125.789 358.789 126.207 359.692 126.324 360.859H124.478C124.39 360.092 124.166 359.541 123.804 359.204C123.448 358.862 122.923 358.691 122.229 358.691C121.424 358.691 120.804 358.986 120.369 359.577C119.939 360.163 119.72 361.025 119.71 362.163V363.107C119.71 364.26 119.915 365.139 120.325 365.744C120.74 366.35 121.346 366.652 122.142 366.652C122.869 366.652 123.416 366.489 123.782 366.162C124.148 365.834 124.38 365.29 124.478 364.528H126.324ZM136.453 368H134.607V363.261H129.839V368H127.986V357.336H129.839V361.774H134.607V357.336H136.453V368Z" fill="#6CAB9F"/>
<path d="M159.112 368.88C159.597 369.37 160.389 369.374 160.879 368.889L168.875 360.975C169.366 360.489 169.37 359.697 168.884 359.207C168.398 358.716 167.607 358.712 167.116 359.198L160.009 366.232L152.974 359.125C152.489 358.635 151.697 358.631 151.207 359.116C150.716 359.602 150.712 360.393 151.198 360.884L159.112 368.88ZM158.765 364.994L158.75 367.994L161.25 368.007L161.265 365.006L158.765 364.994Z" fill="#6CAB9F"/>
<circle opacity="0.5" cx="72.5" cy="48.5" r="10.5" fill="#90D8CA"/>
<circle opacity="0.5" cx="83.5" cy="48.5" r="10.5" fill="#90D8CA"/>
<circle opacity="0.5" cx="94.5" cy="48.5" r="10.5" fill="#90D8CA"/>
<path d="M126.578 45.8594H122.922V56H121.43V45.8594H117.781V44.625H126.578V45.8594ZM129.484 48.5703C130.125 47.7839 130.958 47.3906 131.984 47.3906C133.771 47.3906 134.672 48.3984 134.688 50.4141V56H133.242V50.4062C133.237 49.7969 133.096 49.3464 132.82 49.0547C132.549 48.763 132.125 48.6172 131.547 48.6172C131.078 48.6172 130.667 48.7422 130.312 48.9922C129.958 49.2422 129.682 49.5703 129.484 49.9766V56H128.039V44H129.484V48.5703ZM140.938 48.8438C140.719 48.8073 140.482 48.7891 140.227 48.7891C139.279 48.7891 138.635 49.1927 138.297 50V56H136.852V47.5469H138.258L138.281 48.5234C138.755 47.7682 139.427 47.3906 140.297 47.3906C140.578 47.3906 140.792 47.4271 140.938 47.5V48.8438ZM145.625 56.1562C144.479 56.1562 143.547 55.7812 142.828 55.0312C142.109 54.276 141.75 53.2682 141.75 52.0078V51.7422C141.75 50.9036 141.909 50.1562 142.227 49.5C142.549 48.8385 142.997 48.3229 143.57 47.9531C144.148 47.5781 144.773 47.3906 145.445 47.3906C146.544 47.3906 147.398 47.7526 148.008 48.4766C148.617 49.2005 148.922 50.237 148.922 51.5859V52.1875H143.195C143.216 53.0208 143.458 53.6953 143.922 54.2109C144.391 54.7214 144.984 54.9766 145.703 54.9766C146.214 54.9766 146.646 54.8724 147 54.6641C147.354 54.4557 147.664 54.1797 147.93 53.8359L148.812 54.5234C148.104 55.612 147.042 56.1562 145.625 56.1562ZM145.445 48.5781C144.862 48.5781 144.372 48.7917 143.977 49.2188C143.581 49.6406 143.336 50.2344 143.242 51H147.477V50.8906C147.435 50.1562 147.237 49.5885 146.883 49.1875C146.529 48.7812 146.049 48.5781 145.445 48.5781ZM154.109 56.1562C152.964 56.1562 152.031 55.7812 151.312 55.0312C150.594 54.276 150.234 53.2682 150.234 52.0078V51.7422C150.234 50.9036 150.393 50.1562 150.711 49.5C151.034 48.8385 151.482 48.3229 152.055 47.9531C152.633 47.5781 153.258 47.3906 153.93 47.3906C155.029 47.3906 155.883 47.7526 156.492 48.4766C157.102 49.2005 157.406 50.237 157.406 51.5859V52.1875H151.68C151.701 53.0208 151.943 53.6953 152.406 54.2109C152.875 54.7214 153.469 54.9766 154.188 54.9766C154.698 54.9766 155.13 54.8724 155.484 54.6641C155.839 54.4557 156.148 54.1797 156.414 53.8359L157.297 54.5234C156.589 55.612 155.526 56.1562 154.109 56.1562ZM153.93 48.5781C153.346 48.5781 152.857 48.7917 152.461 49.2188C152.065 49.6406 151.82 50.2344 151.727 51H155.961V50.8906C155.919 50.1562 155.721 49.5885 155.367 49.1875C155.013 48.7812 154.534 48.5781 153.93 48.5781ZM162.703 51.7031C162.703 50.4062 163.01 49.3646 163.625 48.5781C164.24 47.7865 165.044 47.3906 166.039 47.3906C167.029 47.3906 167.812 47.7292 168.391 48.4062V44H169.836V56H168.508L168.438 55.0938C167.859 55.8021 167.055 56.1562 166.023 56.1562C165.044 56.1562 164.245 55.7552 163.625 54.9531C163.01 54.151 162.703 53.1042 162.703 51.8125V51.7031ZM164.148 51.8672C164.148 52.8255 164.346 53.5755 164.742 54.1172C165.138 54.6589 165.685 54.9297 166.383 54.9297C167.299 54.9297 167.969 54.5182 168.391 53.6953V49.8125C167.958 49.0156 167.294 48.6172 166.398 48.6172C165.69 48.6172 165.138 48.8906 164.742 49.4375C164.346 49.9844 164.148 50.7943 164.148 51.8672ZM171.703 51.6953C171.703 50.8672 171.865 50.1224 172.188 49.4609C172.516 48.7995 172.969 48.2891 173.547 47.9297C174.13 47.5703 174.794 47.3906 175.539 47.3906C176.69 47.3906 177.62 47.7891 178.328 48.5859C179.042 49.3828 179.398 50.4427 179.398 51.7656V51.8672C179.398 52.6901 179.24 53.4297 178.922 54.0859C178.609 54.737 178.159 55.2448 177.57 55.6094C176.987 55.974 176.315 56.1562 175.555 56.1562C174.409 56.1562 173.479 55.7578 172.766 54.9609C172.057 54.1641 171.703 53.1094 171.703 51.7969V51.6953ZM173.156 51.8672C173.156 52.8047 173.372 53.5573 173.805 54.125C174.242 54.6927 174.826 54.9766 175.555 54.9766C176.289 54.9766 176.872 54.6901 177.305 54.1172C177.737 53.5391 177.953 52.7318 177.953 51.6953C177.953 50.7682 177.732 50.0182 177.289 49.4453C176.852 48.8672 176.268 48.5781 175.539 48.5781C174.826 48.5781 174.25 48.862 173.812 49.4297C173.375 49.9974 173.156 50.8099 173.156 51.8672ZM183.172 45.5V47.5469H184.75V48.6641H183.172V53.9062C183.172 54.2448 183.242 54.5 183.383 54.6719C183.523 54.8385 183.763 54.9219 184.102 54.9219C184.268 54.9219 184.497 54.8906 184.789 54.8281V56C184.409 56.1042 184.039 56.1562 183.68 56.1562C183.034 56.1562 182.547 55.9609 182.219 55.5703C181.891 55.1797 181.727 54.625 181.727 53.9062V48.6641H180.188V47.5469H181.727V45.5H183.172ZM191.367 53.7578C191.367 53.3672 191.219 53.0651 190.922 52.8516C190.63 52.6328 190.117 52.4453 189.383 52.2891C188.654 52.1328 188.073 51.9453 187.641 51.7266C187.214 51.5078 186.896 51.2474 186.688 50.9453C186.484 50.6432 186.383 50.2839 186.383 49.8672C186.383 49.1745 186.674 48.5885 187.258 48.1094C187.846 47.6302 188.596 47.3906 189.508 47.3906C190.466 47.3906 191.242 47.638 191.836 48.1328C192.435 48.6276 192.734 49.2604 192.734 50.0312H191.281C191.281 49.6354 191.112 49.2943 190.773 49.0078C190.44 48.7214 190.018 48.5781 189.508 48.5781C188.982 48.5781 188.57 48.6927 188.273 48.9219C187.977 49.151 187.828 49.4505 187.828 49.8203C187.828 50.1693 187.966 50.4323 188.242 50.6094C188.518 50.7865 189.016 50.9557 189.734 51.1172C190.458 51.2786 191.044 51.4714 191.492 51.6953C191.94 51.9193 192.271 52.1901 192.484 52.5078C192.703 52.8203 192.812 53.2031 192.812 53.6562C192.812 54.4115 192.51 55.0182 191.906 55.4766C191.302 55.9297 190.518 56.1562 189.555 56.1562C188.878 56.1562 188.279 56.0365 187.758 55.7969C187.237 55.5573 186.828 55.224 186.531 54.7969C186.24 54.3646 186.094 53.8984 186.094 53.3984H187.539C187.565 53.8828 187.758 54.2682 188.117 54.5547C188.482 54.8359 188.961 54.9766 189.555 54.9766C190.102 54.9766 190.539 54.8672 190.867 54.6484C191.201 54.4245 191.367 54.1276 191.367 53.7578Z" fill="#4E6762"/>
<path d="M277.375 51.9297C276.089 51.5599 275.151 51.1068 274.562 50.5703C273.979 50.0286 273.688 49.362 273.688 48.5703C273.688 47.6745 274.044 46.9349 274.758 46.3516C275.477 45.763 276.409 45.4688 277.555 45.4688C278.336 45.4688 279.031 45.6198 279.641 45.9219C280.255 46.224 280.729 46.6406 281.062 47.1719C281.401 47.7031 281.57 48.2839 281.57 48.9141H280.062C280.062 48.2266 279.844 47.6875 279.406 47.2969C278.969 46.901 278.352 46.7031 277.555 46.7031C276.815 46.7031 276.237 46.8672 275.82 47.1953C275.409 47.5182 275.203 47.9688 275.203 48.5469C275.203 49.0104 275.398 49.4036 275.789 49.7266C276.185 50.0443 276.854 50.3359 277.797 50.6016C278.745 50.8672 279.484 51.1615 280.016 51.4844C280.552 51.8021 280.948 52.1745 281.203 52.6016C281.464 53.0286 281.594 53.5312 281.594 54.1094C281.594 55.0312 281.234 55.7708 280.516 56.3281C279.797 56.8802 278.836 57.1562 277.633 57.1562C276.852 57.1562 276.122 57.0078 275.445 56.7109C274.768 56.4089 274.245 55.9974 273.875 55.4766C273.51 54.9557 273.328 54.3646 273.328 53.7031H274.836C274.836 54.3906 275.089 54.9349 275.594 55.3359C276.104 55.7318 276.784 55.9297 277.633 55.9297C278.424 55.9297 279.031 55.7682 279.453 55.4453C279.875 55.1224 280.086 54.6823 280.086 54.125C280.086 53.5677 279.891 53.138 279.5 52.8359C279.109 52.5286 278.401 52.2266 277.375 51.9297ZM290.438 52.8672C290.438 54.1536 290.143 55.1901 289.555 55.9766C288.966 56.763 288.169 57.1562 287.164 57.1562C286.138 57.1562 285.331 56.8307 284.742 56.1797V60.25H283.297V48.5469H284.617L284.688 49.4844C285.276 48.7552 286.094 48.3906 287.141 48.3906C288.156 48.3906 288.958 48.7734 289.547 49.5391C290.141 50.3047 290.438 51.3698 290.438 52.7344V52.8672ZM288.992 52.7031C288.992 51.75 288.789 50.9974 288.383 50.4453C287.977 49.8932 287.419 49.6172 286.711 49.6172C285.836 49.6172 285.18 50.0052 284.742 50.7812V54.8203C285.174 55.5911 285.836 55.9766 286.727 55.9766C287.419 55.9766 287.969 55.7031 288.375 55.1562C288.786 54.6042 288.992 53.7865 288.992 52.7031ZM295.789 57.1562C294.643 57.1562 293.711 56.7812 292.992 56.0312C292.273 55.276 291.914 54.2682 291.914 53.0078V52.7422C291.914 51.9036 292.073 51.1562 292.391 50.5C292.714 49.8385 293.161 49.3229 293.734 48.9531C294.312 48.5781 294.938 48.3906 295.609 48.3906C296.708 48.3906 297.562 48.7526 298.172 49.4766C298.781 50.2005 299.086 51.237 299.086 52.5859V53.1875H293.359C293.38 54.0208 293.622 54.6953 294.086 55.2109C294.555 55.7214 295.148 55.9766 295.867 55.9766C296.378 55.9766 296.81 55.8724 297.164 55.6641C297.518 55.4557 297.828 55.1797 298.094 54.8359L298.977 55.5234C298.268 56.612 297.206 57.1562 295.789 57.1562ZM295.609 49.5781C295.026 49.5781 294.536 49.7917 294.141 50.2188C293.745 50.6406 293.5 51.2344 293.406 52H297.641V51.8906C297.599 51.1562 297.401 50.5885 297.047 50.1875C296.693 49.7812 296.214 49.5781 295.609 49.5781ZM304.156 55.9766C304.672 55.9766 305.122 55.8203 305.508 55.5078C305.893 55.1953 306.107 54.8047 306.148 54.3359H307.516C307.49 54.8203 307.323 55.2812 307.016 55.7188C306.708 56.1562 306.297 56.5052 305.781 56.7656C305.271 57.026 304.729 57.1562 304.156 57.1562C303.005 57.1562 302.089 56.7734 301.406 56.0078C300.729 55.237 300.391 54.1849 300.391 52.8516V52.6094C300.391 51.7865 300.542 51.0547 300.844 50.4141C301.146 49.7734 301.578 49.276 302.141 48.9219C302.708 48.5677 303.378 48.3906 304.148 48.3906C305.096 48.3906 305.883 48.6745 306.508 49.2422C307.138 49.8099 307.474 50.5469 307.516 51.4531H306.148C306.107 50.9062 305.898 50.4583 305.523 50.1094C305.154 49.7552 304.695 49.5781 304.148 49.5781C303.414 49.5781 302.844 49.8438 302.438 50.375C302.036 50.901 301.836 51.6641 301.836 52.6641V52.9375C301.836 53.9115 302.036 54.6615 302.438 55.1875C302.839 55.7135 303.411 55.9766 304.156 55.9766ZM314.062 54.7578C314.062 54.3672 313.914 54.0651 313.617 53.8516C313.326 53.6328 312.812 53.4453 312.078 53.2891C311.349 53.1328 310.768 52.9453 310.336 52.7266C309.909 52.5078 309.591 52.2474 309.383 51.9453C309.18 51.6432 309.078 51.2839 309.078 50.8672C309.078 50.1745 309.37 49.5885 309.953 49.1094C310.542 48.6302 311.292 48.3906 312.203 48.3906C313.161 48.3906 313.938 48.638 314.531 49.1328C315.13 49.6276 315.43 50.2604 315.43 51.0312H313.977C313.977 50.6354 313.807 50.2943 313.469 50.0078C313.135 49.7214 312.714 49.5781 312.203 49.5781C311.677 49.5781 311.266 49.6927 310.969 49.9219C310.672 50.151 310.523 50.4505 310.523 50.8203C310.523 51.1693 310.661 51.4323 310.938 51.6094C311.214 51.7865 311.711 51.9557 312.43 52.1172C313.154 52.2786 313.74 52.4714 314.188 52.6953C314.635 52.9193 314.966 53.1901 315.18 53.5078C315.398 53.8203 315.508 54.2031 315.508 54.6562C315.508 55.4115 315.206 56.0182 314.602 56.4766C313.997 56.9297 313.214 57.1562 312.25 57.1562C311.573 57.1562 310.974 57.0365 310.453 56.7969C309.932 56.5573 309.523 56.224 309.227 55.7969C308.935 55.3646 308.789 54.8984 308.789 54.3984H310.234C310.26 54.8828 310.453 55.2682 310.812 55.5547C311.177 55.8359 311.656 55.9766 312.25 55.9766C312.797 55.9766 313.234 55.8672 313.562 55.6484C313.896 55.4245 314.062 55.1276 314.062 54.7578Z" fill="#4E6762"/>
<path d="M434.227 54.3906C434.086 55.5938 433.641 56.5234 432.891 57.1797C432.146 57.8307 431.154 58.1562 429.914 58.1562C428.57 58.1562 427.492 57.6745 426.68 56.7109C425.872 55.7474 425.469 54.4583 425.469 52.8438V51.75C425.469 50.6927 425.656 49.763 426.031 48.9609C426.411 48.1589 426.948 47.5443 427.641 47.1172C428.333 46.6849 429.135 46.4688 430.047 46.4688C431.255 46.4688 432.224 46.8073 432.953 47.4844C433.682 48.1562 434.107 49.0885 434.227 50.2812H432.719C432.589 49.375 432.305 48.7188 431.867 48.3125C431.435 47.9062 430.828 47.7031 430.047 47.7031C429.089 47.7031 428.336 48.0573 427.789 48.7656C427.247 49.474 426.977 50.4818 426.977 51.7891V52.8906C426.977 54.125 427.234 55.1068 427.75 55.8359C428.266 56.5651 428.987 56.9297 429.914 56.9297C430.747 56.9297 431.385 56.7422 431.828 56.3672C432.276 55.987 432.573 55.3281 432.719 54.3906H434.227ZM435.672 53.6953C435.672 52.8672 435.833 52.1224 436.156 51.4609C436.484 50.7995 436.938 50.2891 437.516 49.9297C438.099 49.5703 438.763 49.3906 439.508 49.3906C440.659 49.3906 441.589 49.7891 442.297 50.5859C443.01 51.3828 443.367 52.4427 443.367 53.7656V53.8672C443.367 54.6901 443.208 55.4297 442.891 56.0859C442.578 56.737 442.128 57.2448 441.539 57.6094C440.956 57.974 440.284 58.1562 439.523 58.1562C438.378 58.1562 437.448 57.7578 436.734 56.9609C436.026 56.1641 435.672 55.1094 435.672 53.7969V53.6953ZM437.125 53.8672C437.125 54.8047 437.341 55.5573 437.773 56.125C438.211 56.6927 438.794 56.9766 439.523 56.9766C440.258 56.9766 440.841 56.6901 441.273 56.1172C441.706 55.5391 441.922 54.7318 441.922 53.6953C441.922 52.7682 441.701 52.0182 441.258 51.4453C440.82 50.8672 440.237 50.5781 439.508 50.5781C438.794 50.5781 438.219 50.862 437.781 51.4297C437.344 51.9974 437.125 52.8099 437.125 53.8672ZM446.547 49.5469L446.594 50.6094C447.24 49.7969 448.083 49.3906 449.125 49.3906C450.911 49.3906 451.812 50.3984 451.828 52.4141V58H450.383V52.4062C450.378 51.7969 450.237 51.3464 449.961 51.0547C449.69 50.763 449.266 50.6172 448.688 50.6172C448.219 50.6172 447.807 50.7422 447.453 50.9922C447.099 51.2422 446.823 51.5703 446.625 51.9766V58H445.18V49.5469H446.547ZM455.969 47.5V49.5469H457.547V50.6641H455.969V55.9062C455.969 56.2448 456.039 56.5 456.18 56.6719C456.32 56.8385 456.56 56.9219 456.898 56.9219C457.065 56.9219 457.294 56.8906 457.586 56.8281V58C457.206 58.1042 456.836 58.1562 456.477 58.1562C455.831 58.1562 455.344 57.9609 455.016 57.5703C454.688 57.1797 454.523 56.625 454.523 55.9062V50.6641H452.984V49.5469H454.523V47.5H455.969ZM464.461 58C464.378 57.8333 464.31 57.5365 464.258 57.1094C463.586 57.8073 462.784 58.1562 461.852 58.1562C461.018 58.1562 460.333 57.9219 459.797 57.4531C459.266 56.9792 459 56.3802 459 55.6562C459 54.776 459.333 54.0938 460 53.6094C460.672 53.1198 461.615 52.875 462.828 52.875H464.234V52.2109C464.234 51.7057 464.083 51.3047 463.781 51.0078C463.479 50.7057 463.034 50.5547 462.445 50.5547C461.93 50.5547 461.497 50.6849 461.148 50.9453C460.799 51.2057 460.625 51.5208 460.625 51.8906H459.172C459.172 51.4688 459.32 51.0625 459.617 50.6719C459.919 50.276 460.326 49.9635 460.836 49.7344C461.352 49.5052 461.917 49.3906 462.531 49.3906C463.505 49.3906 464.268 49.6354 464.82 50.125C465.372 50.6094 465.659 51.2786 465.68 52.1328V56.0234C465.68 56.7995 465.779 57.4167 465.977 57.875V58H464.461ZM462.062 56.8984C462.516 56.8984 462.945 56.7812 463.352 56.5469C463.758 56.3125 464.052 56.0078 464.234 55.6328V53.8984H463.102C461.331 53.8984 460.445 54.4167 460.445 55.4531C460.445 55.9062 460.596 56.2604 460.898 56.5156C461.201 56.7708 461.589 56.8984 462.062 56.8984ZM471.336 56.9766C471.852 56.9766 472.302 56.8203 472.688 56.5078C473.073 56.1953 473.286 55.8047 473.328 55.3359H474.695C474.669 55.8203 474.503 56.2812 474.195 56.7188C473.888 57.1562 473.477 57.5052 472.961 57.7656C472.451 58.026 471.909 58.1562 471.336 58.1562C470.185 58.1562 469.268 57.7734 468.586 57.0078C467.909 56.237 467.57 55.1849 467.57 53.8516V53.6094C467.57 52.7865 467.721 52.0547 468.023 51.4141C468.326 50.7734 468.758 50.276 469.32 49.9219C469.888 49.5677 470.557 49.3906 471.328 49.3906C472.276 49.3906 473.062 49.6745 473.688 50.2422C474.318 50.8099 474.654 51.5469 474.695 52.4531H473.328C473.286 51.9062 473.078 51.4583 472.703 51.1094C472.333 50.7552 471.875 50.5781 471.328 50.5781C470.594 50.5781 470.023 50.8438 469.617 51.375C469.216 51.901 469.016 52.6641 469.016 53.6641V53.9375C469.016 54.9115 469.216 55.6615 469.617 56.1875C470.018 56.7135 470.591 56.9766 471.336 56.9766ZM478.281 47.5V49.5469H479.859V50.6641H478.281V55.9062C478.281 56.2448 478.352 56.5 478.492 56.6719C478.633 56.8385 478.872 56.9219 479.211 56.9219C479.378 56.9219 479.607 56.8906 479.898 56.8281V58C479.518 58.1042 479.148 58.1562 478.789 58.1562C478.143 58.1562 477.656 57.9609 477.328 57.5703C477 57.1797 476.836 56.625 476.836 55.9062V50.6641H475.297V49.5469H476.836V47.5H478.281Z" fill="#4E6762"/>
<path d="M343.219 53.5469V58H341.719V46.625H345.914C347.159 46.625 348.133 46.9427 348.836 47.5781C349.544 48.2135 349.898 49.0547 349.898 50.1016C349.898 51.2057 349.552 52.0573 348.859 52.6562C348.172 53.25 347.185 53.5469 345.898 53.5469H343.219ZM343.219 52.3203H345.914C346.716 52.3203 347.331 52.1328 347.758 51.7578C348.185 51.3776 348.398 50.8307 348.398 50.1172C348.398 49.4401 348.185 48.8984 347.758 48.4922C347.331 48.0859 346.745 47.875 346 47.8594H343.219V52.3203ZM355.672 50.8438C355.453 50.8073 355.216 50.7891 354.961 50.7891C354.013 50.7891 353.37 51.1927 353.031 52V58H351.586V49.5469H352.992L353.016 50.5234C353.49 49.7682 354.161 49.3906 355.031 49.3906C355.312 49.3906 355.526 49.4271 355.672 49.5V50.8438ZM356.469 53.6953C356.469 52.8672 356.63 52.1224 356.953 51.4609C357.281 50.7995 357.734 50.2891 358.312 49.9297C358.896 49.5703 359.56 49.3906 360.305 49.3906C361.456 49.3906 362.385 49.7891 363.094 50.5859C363.807 51.3828 364.164 52.4427 364.164 53.7656V53.8672C364.164 54.6901 364.005 55.4297 363.688 56.0859C363.375 56.737 362.924 57.2448 362.336 57.6094C361.753 57.974 361.081 58.1562 360.32 58.1562C359.174 58.1562 358.245 57.7578 357.531 56.9609C356.823 56.1641 356.469 55.1094 356.469 53.7969V53.6953ZM357.922 53.8672C357.922 54.8047 358.138 55.5573 358.57 56.125C359.008 56.6927 359.591 56.9766 360.32 56.9766C361.055 56.9766 361.638 56.6901 362.07 56.1172C362.503 55.5391 362.719 54.7318 362.719 53.6953C362.719 52.7682 362.497 52.0182 362.055 51.4453C361.617 50.8672 361.034 50.5781 360.305 50.5781C359.591 50.5781 359.016 50.862 358.578 51.4297C358.141 51.9974 357.922 52.8099 357.922 53.8672ZM365.625 53.7031C365.625 52.4062 365.932 51.3646 366.547 50.5781C367.161 49.7865 367.966 49.3906 368.961 49.3906C369.951 49.3906 370.734 49.7292 371.312 50.4062V46H372.758V58H371.43L371.359 57.0938C370.781 57.8021 369.977 58.1562 368.945 58.1562C367.966 58.1562 367.167 57.7552 366.547 56.9531C365.932 56.151 365.625 55.1042 365.625 53.8125V53.7031ZM367.07 53.8672C367.07 54.8255 367.268 55.5755 367.664 56.1172C368.06 56.6589 368.607 56.9297 369.305 56.9297C370.221 56.9297 370.891 56.5182 371.312 55.6953V51.8125C370.88 51.0156 370.216 50.6172 369.32 50.6172C368.612 50.6172 368.06 50.8906 367.664 51.4375C367.268 51.9844 367.07 52.7943 367.07 53.8672ZM380.227 57.1641C379.664 57.8255 378.839 58.1562 377.75 58.1562C376.849 58.1562 376.161 57.8958 375.688 57.375C375.219 56.849 374.982 56.0729 374.977 55.0469V49.5469H376.422V55.0078C376.422 56.2891 376.943 56.9297 377.984 56.9297C379.089 56.9297 379.823 56.5182 380.188 55.6953V49.5469H381.633V58H380.258L380.227 57.1641ZM387.227 56.9766C387.742 56.9766 388.193 56.8203 388.578 56.5078C388.964 56.1953 389.177 55.8047 389.219 55.3359H390.586C390.56 55.8203 390.393 56.2812 390.086 56.7188C389.779 57.1562 389.367 57.5052 388.852 57.7656C388.341 58.026 387.799 58.1562 387.227 58.1562C386.076 58.1562 385.159 57.7734 384.477 57.0078C383.799 56.237 383.461 55.1849 383.461 53.8516V53.6094C383.461 52.7865 383.612 52.0547 383.914 51.4141C384.216 50.7734 384.648 50.276 385.211 49.9219C385.779 49.5677 386.448 49.3906 387.219 49.3906C388.167 49.3906 388.953 49.6745 389.578 50.2422C390.208 50.8099 390.544 51.5469 390.586 52.4531H389.219C389.177 51.9062 388.969 51.4583 388.594 51.1094C388.224 50.7552 387.766 50.5781 387.219 50.5781C386.484 50.5781 385.914 50.8438 385.508 51.375C385.107 51.901 384.906 52.6641 384.906 53.6641V53.9375C384.906 54.9115 385.107 55.6615 385.508 56.1875C385.909 56.7135 386.482 56.9766 387.227 56.9766ZM394.172 47.5V49.5469H395.75V50.6641H394.172V55.9062C394.172 56.2448 394.242 56.5 394.383 56.6719C394.523 56.8385 394.763 56.9219 395.102 56.9219C395.268 56.9219 395.497 56.8906 395.789 56.8281V58C395.409 58.1042 395.039 58.1562 394.68 58.1562C394.034 58.1562 393.547 57.9609 393.219 57.5703C392.891 57.1797 392.727 56.625 392.727 55.9062V50.6641H391.188V49.5469H392.727V47.5H394.172ZM402.367 55.7578C402.367 55.3672 402.219 55.0651 401.922 54.8516C401.63 54.6328 401.117 54.4453 400.383 54.2891C399.654 54.1328 399.073 53.9453 398.641 53.7266C398.214 53.5078 397.896 53.2474 397.688 52.9453C397.484 52.6432 397.383 52.2839 397.383 51.8672C397.383 51.1745 397.674 50.5885 398.258 50.1094C398.846 49.6302 399.596 49.3906 400.508 49.3906C401.466 49.3906 402.242 49.638 402.836 50.1328C403.435 50.6276 403.734 51.2604 403.734 52.0312H402.281C402.281 51.6354 402.112 51.2943 401.773 51.0078C401.44 50.7214 401.018 50.5781 400.508 50.5781C399.982 50.5781 399.57 50.6927 399.273 50.9219C398.977 51.151 398.828 51.4505 398.828 51.8203C398.828 52.1693 398.966 52.4323 399.242 52.6094C399.518 52.7865 400.016 52.9557 400.734 53.1172C401.458 53.2786 402.044 53.4714 402.492 53.6953C402.94 53.9193 403.271 54.1901 403.484 54.5078C403.703 54.8203 403.812 55.2031 403.812 55.6562C403.812 56.4115 403.51 57.0182 402.906 57.4766C402.302 57.9297 401.518 58.1562 400.555 58.1562C399.878 58.1562 399.279 58.0365 398.758 57.7969C398.237 57.5573 397.828 57.224 397.531 56.7969C397.24 56.3646 397.094 55.8984 397.094 55.3984H398.539C398.565 55.8828 398.758 56.2682 399.117 56.5547C399.482 56.8359 399.961 56.9766 400.555 56.9766C401.102 56.9766 401.539 56.8672 401.867 56.6484C402.201 56.4245 402.367 56.1276 402.367 55.7578Z" fill="#4E6762"/>
<ellipse cx="841" cy="53.5" rx="20" ry="15.5" fill="#4D4758"/>
<path d="M850.922 55.9473L852.974 47.0098C853.122 46.3645 852.626 45.75 851.958 45.75H834.91L834.512 43.8246C834.413 43.3447 833.987 43 833.492 43H829.042C828.466 43 828 43.4617 828 44.0312V44.7188C828 45.2883 828.466 45.75 829.042 45.75H832.075L835.124 60.507C834.394 60.9223 833.903 61.7009 833.903 62.5938C833.903 63.9227 834.991 65 836.333 65C837.676 65 838.764 63.9227 838.764 62.5938C838.764 61.9203 838.484 61.3118 838.034 60.875H847.133C846.683 61.3118 846.403 61.9203 846.403 62.5938C846.403 63.9227 847.491 65 848.833 65C850.176 65 851.264 63.9227 851.264 62.5938C851.264 61.641 850.705 60.8178 849.893 60.4279L850.133 59.3848C850.281 58.7395 849.785 58.125 849.117 58.125H837.467L837.183 56.75H849.906C850.392 56.75 850.814 56.4168 850.922 55.9473Z" fill="white"/>
<line y1="-1" x2="11.0836" y2="-1" transform="matrix(0.869194 0.4983 -0.564191 0.823103 765.194 565.804)" stroke="#4D4758" stroke-width="2"/>
<line y1="-1" x2="10.7102" y2="-1" transform="matrix(-0.851432 0.520351 -0.599807 -0.802983 774.814 559.4)" stroke="#4D4758" stroke-width="2"/>
<line y1="-1" x2="10.9617" y2="-1" transform="matrix(-0.90103 -0.430666 0.512777 -0.860249 860.877 564.015)" stroke="#4D4758" stroke-width="2"/>
<line y1="-1" x2="10.5836" y2="-1" transform="matrix(0.817961 -0.577896 0.65369 0.754634 851.778 570.981)" stroke="#4D4758" stroke-width="2"/>
<path d="M790 564.5C790 566.336 788.311 568 786 568C783.689 568 782 566.336 782 564.5C782 562.664 783.689 561 786 561C788.311 561 790 562.664 790 564.5Z" fill="white" stroke="#4D4758" stroke-width="2"/>
<ellipse cx="804" cy="564.5" rx="5" ry="4.5" fill="#4D4758"/>
<ellipse cx="822" cy="564.5" rx="5" ry="4.5" fill="#4D4758"/>
<ellipse cx="840" cy="564.5" rx="5" ry="4.5" fill="#4D4758"/>
</g>
<defs>
<linearGradient id="paint0_linear" x1="501.022" y1="381.101" x2="505.62" y2="713.658" gradientUnits="userSpaceOnUse">
<stop stop-color="white"/>
<stop offset="1" stop-color="#90D8CA"/>
</linearGradient>
<linearGradient id="paint1_linear" x1="501.022" y1="381.101" x2="505.62" y2="713.658" gradientUnits="userSpaceOnUse">
<stop stop-color="white"/>
<stop offset="1" stop-color="#90D8CA"/>
</linearGradient>
<linearGradient id="paint2_linear" x1="959.377" y1="401.652" x2="959.377" y2="813.851" gradientUnits="userSpaceOnUse">
<stop stop-color="white"/>
<stop offset="1" stop-color="#90D8CA"/>
</linearGradient>
<linearGradient id="paint3_linear" x1="959.377" y1="401.652" x2="959.377" y2="813.851" gradientUnits="userSpaceOnUse">
<stop stop-color="#90D8CA"/>
<stop offset="1" stop-color="white"/>
</linearGradient>
<linearGradient id="paint4_linear" x1="603.5" y1="140" x2="603.5" y2="559" gradientUnits="userSpaceOnUse">
<stop stop-color="white"/>
<stop offset="1" stop-color="#90D8CA"/>
</linearGradient>
<linearGradient id="paint5_linear" x1="603.5" y1="140" x2="603.5" y2="559" gradientUnits="userSpaceOnUse">
<stop stop-color="white"/>
<stop offset="1" stop-color="#90D8CA"/>
</linearGradient>
<linearGradient id="paint6_linear" x1="794" y1="-69" x2="794" y2="395" gradientUnits="userSpaceOnUse">
<stop stop-color="white"/>
<stop offset="1" stop-color="#90D8CA"/>
</linearGradient>
<linearGradient id="paint7_linear" x1="70" y1="223" x2="432" y2="221" gradientUnits="userSpaceOnUse">
<stop stop-color="#373637"/>
<stop offset="1" stop-color="#4E6762"/>
</linearGradient>
<clipPath id="clip0">
<rect width="931" height="608" fill="white"/>
</clipPath>
</defs>
</svg>
